M48
;DRILL file {KiCad 4.0.1-stable} date 11/28/2016 11:50:31 AM
;FORMAT={-:-/ absolute / inch / decimal}
FMAT,2
INCH,TZ
T1C0.012
T2C0.026
T3C0.058
%
G90
G05
M72
T1
X4.9183Y-4.253
X4.9341Y-3.7963
X4.935Y-3.6486
X4.936Y-4.296
X4.9442Y-3.914
X4.9496Y-3.5293
X4.9585Y-4.4469
X4.9636Y-4.5217
X4.9803Y-3.0167
X4.9836Y-4.1947
X4.9892Y-4.5197
X4.9986Y-3.4292
X5.Y-4.2372
X5.006Y-3.5166
X5.0079Y-3.0167
X5.0177Y-4.6447
X5.0177Y-4.6742
X5.0354Y-3.0167
X5.0453Y-4.6447
X5.0453Y-4.6742
X5.0504Y-3.4292
X5.0592Y-4.4463
X5.063Y-3.0167
X5.065Y-3.6299
X5.0728Y-4.6447
X5.0728Y-4.6742
X5.0775Y-3.3326
X5.0906Y-3.0167
X5.1004Y-3.7884
X5.1004Y-3.8317
X5.1004Y-4.6447
X5.1004Y-4.6742
X5.1044Y-4.1518
X5.1083Y-3.061
X5.1142Y-3.0315
X5.1201Y-3.0945
X5.1201Y-4.3213
X5.1252Y-4.2443
X5.1338Y-4.3479
X5.1632Y-3.3144
X5.1767Y-4.1522
X5.1815Y-4.0231
X5.1929Y-3.6949
X5.1976Y-4.3213
X5.1976Y-4.3484
X5.2047Y-3.7726
X5.2059Y-3.3644
X5.2059Y-3.4175
X5.208Y-4.037
X5.2156Y-3.562
X5.2166Y-3.1607
X5.2185Y-4.6289
X5.2253Y-3.6925
X5.2352Y-3.7579
X5.2352Y-3.7894
X5.2371Y-3.4957
X5.2372Y-3.9508
X5.2379Y-4.025
X5.2402Y-3.8927
X5.2492Y-4.3205
X5.2493Y-4.3473
X5.2539Y-4.69
X5.2674Y-3.7216
X5.2688Y-3.5667
X5.2746Y-3.7579
X5.2746Y-3.7894
X5.2763Y-4.3223
X5.2765Y-4.3473
X5.2776Y-3.8353
X5.2795Y-3.8927
X5.2805Y-3.0207
X5.2805Y-3.0482
X5.2815Y-2.9931
X5.2888Y-3.1616
X5.2905Y-3.249
X5.2938Y-4.1452
X5.3Y-3.5184
X5.3016Y-3.1128
X5.3049Y-4.3483
X5.3052Y-4.3227
X5.3091Y-4.4793
X5.311Y-4.0098
X5.312Y-4.5453
X5.3124Y-4.6173
X5.313Y-4.69
X5.314Y-3.7579
X5.314Y-3.7894
X5.315Y-3.0669
X5.3179Y-3.9537
X5.3189Y-3.8927
X5.3212Y-3.5823
X5.3232Y-3.688
X5.3315Y-3.1187
X5.3316Y-4.3221
X5.3316Y-4.3478
X5.3325Y-3.3573
X5.341Y-3.0629
X5.3414Y-3.7134
X5.3484Y-3.0118
X5.3494Y-3.0374
X5.3533Y-3.7579
X5.3533Y-3.7894
X5.3565Y-3.1408
X5.3589Y-4.3224
X5.359Y-4.3483
X5.3625Y-4.0296
X5.3691Y-2.997
X5.3701Y-3.0226
X5.3705Y-3.8717
X5.3731Y-3.2724
X5.3751Y-4.1542
X5.3768Y-3.9356
X5.3868Y-4.4774
X5.3868Y-4.5463
X5.3872Y-4.3477
X5.3875Y-4.3211
X5.3878Y-4.6181
X5.3986Y-2.9718
X5.4006Y-3.7205
X5.4009Y-4.0165
X5.4042Y-3.0584
X5.4058Y-4.1453
X5.4063Y-3.0945
X5.4128Y-3.8684
X5.4137Y-3.9074
X5.415Y-4.3222
X5.415Y-4.3485
X5.4174Y-3.182
X5.426Y-4.0003
X5.4262Y-3.8071
X5.4291Y-3.7342
X5.4409Y-3.0669
X5.4432Y-4.3227
X5.4433Y-4.3483
X5.4467Y-3.1689
X5.4539Y-3.5965
X5.4585Y-3.1386
X5.4607Y-4.0398
X5.4646Y-4.1841
X5.4648Y-4.24
X5.4669Y-3.2135
X5.4751Y-3.6865
X5.4932Y-4.1174
X5.4971Y-3.6612
X5.5315Y-3.9291
X5.5316Y-3.6817
X5.5374Y-3.8033
X5.5443Y-4.1467
X5.5483Y-3.8706
X5.5531Y-4.226
X5.5765Y-3.082
X5.5779Y-4.1639
X5.5791Y-3.803
X5.5877Y-3.8706
X5.5965Y-4.0272
X5.5965Y-4.0567
X5.5974Y-3.7126
X5.6093Y-4.2274
X5.6093Y-4.2589
X5.6201Y-4.4616
X5.6271Y-3.8706
X5.6279Y-4.0264
X5.6329Y-4.1339
X5.6329Y-4.1634
X5.6348Y-3.0325
X5.6359Y-4.0567
X5.6398Y-4.5738
X5.6432Y-2.9943
X5.6486Y-4.2274
X5.6486Y-4.2589
X5.6551Y-3.1682
X5.6555Y-3.7116
X5.6585Y-3.0551
X5.6585Y-3.0866
X5.6585Y-3.1201
X5.6594Y-4.4222
X5.6616Y-4.0264
X5.6624Y-4.1339
X5.6624Y-4.1634
X5.6664Y-3.8706
X5.6665Y-3.8415
X5.6671Y-3.8103
X5.6753Y-4.0567
X5.688Y-4.2274
X5.688Y-4.2589
X5.6913Y-3.144
X5.6919Y-4.1339
X5.6919Y-4.1634
X5.6937Y-3.8406
X5.6939Y-3.8701
X5.6944Y-3.8098
X5.6969Y-3.0177
X5.6969Y-3.7762
X5.6988Y-4.4616
X5.7067Y-3.1083
X5.7215Y-4.1339
X5.7234Y-3.0443
X5.7244Y-4.0837
X5.7274Y-3.0118
X5.7274Y-4.2274
X5.7274Y-4.2589
X5.7274Y-4.2904
X5.7343Y-4.6102
X5.749Y-4.0585
X5.751Y-4.3809
X5.753Y-3.0738
X5.7539Y-3.0394
X5.7541Y-3.113
X5.7608Y-3.7835
X5.7657Y-3.9291
X5.7667Y-4.2589
X5.7667Y-4.2904
X5.7766Y-4.6102
X5.7864Y-3.0728
X5.7864Y-3.9803
X5.7874Y-3.0384
X5.7943Y-3.749
X5.7963Y-4.0669
X5.8061Y-4.2589
X5.8061Y-4.2904
X5.811Y-3.7933
X5.8228Y-4.0512
X5.8317Y-3.7441
X5.9252Y-3.0433
X5.9262Y-3.0955
T2
X5.9272Y-2.9902
X5.9272Y-3.1496
X5.9272Y-4.2825
X5.9272Y-4.4419
T3
X5.8031Y-4.1949
X5.8976Y-3.7067
X5.8976Y-4.1949
T0
M30
