G04 #@! TF.FileFunction,Legend,Top*
%FSLAX46Y46*%
G04 Gerber Fmt 4.6, Leading zero omitted, Abs format (unit mm)*
G04 Created by KiCad (PCBNEW 4.0.1-stable) date 11/28/2016 11:50:17 AM*
%MOMM*%
G01*
G04 APERTURE LIST*
%ADD10C,0.100000*%
%ADD11C,0.200000*%
%ADD12C,0.050000*%
%ADD13C,0.150000*%
%ADD14C,0.203200*%
%ADD15C,0.099060*%
%ADD16C,0.152400*%
%ADD17C,0.300000*%
%ADD18C,0.500000*%
%ADD19R,0.300000X0.650000*%
%ADD20R,1.240000X0.775000*%
%ADD21R,2.400000X2.400000*%
%ADD22R,0.500000X0.900000*%
%ADD23R,0.900000X0.500000*%
%ADD24R,0.750000X0.800000*%
%ADD25R,0.800000X0.300000*%
%ADD26R,0.300000X0.800000*%
%ADD27R,1.000000X1.000000*%
%ADD28R,1.897380X1.897380*%
%ADD29R,1.897380X1.899920*%
%ADD30R,1.897380X1.795780*%
%ADD31R,1.597660X2.095500*%
%ADD32R,1.346200X0.398780*%
%ADD33R,0.679400X1.873200*%
%ADD34R,1.873200X0.679400*%
%ADD35R,0.850000X0.350000*%
%ADD36R,1.700000X0.500000*%
%ADD37R,0.500000X1.700000*%
%ADD38R,1.000000X1.800000*%
%ADD39R,0.800000X0.750000*%
%ADD40R,1.500000X1.000000*%
%ADD41R,0.500000X0.800000*%
%ADD42R,1.100000X1.100000*%
%ADD43R,0.300000X3.500000*%
%ADD44R,1.800000X2.200000*%
%ADD45C,1.800000*%
%ADD46R,0.800100X0.800100*%
%ADD47R,0.900000X1.700000*%
%ADD48R,1.050000X1.650000*%
%ADD49C,0.800000*%
%ADD50R,0.750000X0.500000*%
%ADD51R,3.000000X3.600000*%
%ADD52C,0.175000*%
%ADD53R,0.800000X0.500000*%
%ADD54R,1.200000X1.400000*%
%ADD55R,0.700000X0.300000*%
%ADD56R,0.800000X1.380000*%
%ADD57C,1.270000*%
G04 APERTURE END LIST*
D10*
D11*
X136825000Y-118789286D02*
X136953571Y-118832143D01*
X137167857Y-118832143D01*
X137253571Y-118789286D01*
X137296428Y-118746429D01*
X137339285Y-118660714D01*
X137339285Y-118575000D01*
X137296428Y-118489286D01*
X137253571Y-118446429D01*
X137167857Y-118403571D01*
X136996428Y-118360714D01*
X136910714Y-118317857D01*
X136867857Y-118275000D01*
X136825000Y-118189286D01*
X136825000Y-118103571D01*
X136867857Y-118017857D01*
X136910714Y-117975000D01*
X136996428Y-117932143D01*
X137210714Y-117932143D01*
X137339285Y-117975000D01*
X137639285Y-118232143D02*
X137810714Y-118832143D01*
X137982143Y-118403571D01*
X138153571Y-118832143D01*
X138325000Y-118232143D01*
X138667857Y-118832143D02*
X138667857Y-118232143D01*
X138667857Y-117932143D02*
X138625000Y-117975000D01*
X138667857Y-118017857D01*
X138710714Y-117975000D01*
X138667857Y-117932143D01*
X138667857Y-118017857D01*
X139096428Y-118232143D02*
X139096428Y-118832143D01*
X139096428Y-118317857D02*
X139139285Y-118275000D01*
X139224999Y-118232143D01*
X139353571Y-118232143D01*
X139439285Y-118275000D01*
X139482142Y-118360714D01*
X139482142Y-118832143D01*
X140296428Y-118232143D02*
X140296428Y-118960714D01*
X140253571Y-119046429D01*
X140210714Y-119089286D01*
X140124999Y-119132143D01*
X139996428Y-119132143D01*
X139910714Y-119089286D01*
X140296428Y-118789286D02*
X140210714Y-118832143D01*
X140039285Y-118832143D01*
X139953571Y-118789286D01*
X139910714Y-118746429D01*
X139867857Y-118660714D01*
X139867857Y-118403571D01*
X139910714Y-118317857D01*
X139953571Y-118275000D01*
X140039285Y-118232143D01*
X140210714Y-118232143D01*
X140296428Y-118275000D01*
X141710714Y-118360714D02*
X141410714Y-118360714D01*
X141410714Y-118832143D02*
X141410714Y-117932143D01*
X141839285Y-117932143D01*
X142310714Y-118832143D02*
X142225000Y-118789286D01*
X142182143Y-118746429D01*
X142139286Y-118660714D01*
X142139286Y-118403571D01*
X142182143Y-118317857D01*
X142225000Y-118275000D01*
X142310714Y-118232143D01*
X142439286Y-118232143D01*
X142525000Y-118275000D01*
X142567857Y-118317857D01*
X142610714Y-118403571D01*
X142610714Y-118660714D01*
X142567857Y-118746429D01*
X142525000Y-118789286D01*
X142439286Y-118832143D01*
X142310714Y-118832143D01*
X142996429Y-118832143D02*
X142996429Y-118232143D01*
X142996429Y-118403571D02*
X143039286Y-118317857D01*
X143082143Y-118275000D01*
X143167857Y-118232143D01*
X143253572Y-118232143D01*
X143939286Y-118232143D02*
X143939286Y-118960714D01*
X143896429Y-119046429D01*
X143853572Y-119089286D01*
X143767857Y-119132143D01*
X143639286Y-119132143D01*
X143553572Y-119089286D01*
X143939286Y-118789286D02*
X143853572Y-118832143D01*
X143682143Y-118832143D01*
X143596429Y-118789286D01*
X143553572Y-118746429D01*
X143510715Y-118660714D01*
X143510715Y-118403571D01*
X143553572Y-118317857D01*
X143596429Y-118275000D01*
X143682143Y-118232143D01*
X143853572Y-118232143D01*
X143939286Y-118275000D01*
X144710715Y-118789286D02*
X144625001Y-118832143D01*
X144453572Y-118832143D01*
X144367858Y-118789286D01*
X144325001Y-118703571D01*
X144325001Y-118360714D01*
X144367858Y-118275000D01*
X144453572Y-118232143D01*
X144625001Y-118232143D01*
X144710715Y-118275000D01*
X144753572Y-118360714D01*
X144753572Y-118446429D01*
X144325001Y-118532143D01*
X146339286Y-118832143D02*
X146039286Y-118403571D01*
X145825001Y-118832143D02*
X145825001Y-117932143D01*
X146167858Y-117932143D01*
X146253572Y-117975000D01*
X146296429Y-118017857D01*
X146339286Y-118103571D01*
X146339286Y-118232143D01*
X146296429Y-118317857D01*
X146253572Y-118360714D01*
X146167858Y-118403571D01*
X145825001Y-118403571D01*
X147067858Y-118789286D02*
X146982144Y-118832143D01*
X146810715Y-118832143D01*
X146725001Y-118789286D01*
X146682144Y-118703571D01*
X146682144Y-118360714D01*
X146725001Y-118275000D01*
X146810715Y-118232143D01*
X146982144Y-118232143D01*
X147067858Y-118275000D01*
X147110715Y-118360714D01*
X147110715Y-118446429D01*
X146682144Y-118532143D01*
X147410715Y-118232143D02*
X147625001Y-118832143D01*
X147839287Y-118232143D01*
X149253572Y-118232143D02*
X149253572Y-118832143D01*
X149039286Y-117889286D02*
X148825001Y-118532143D01*
X149382143Y-118532143D01*
X149725001Y-118746429D02*
X149767858Y-118789286D01*
X149725001Y-118832143D01*
X149682144Y-118789286D01*
X149725001Y-118746429D01*
X149725001Y-118832143D01*
X150625000Y-118832143D02*
X150110715Y-118832143D01*
X150367857Y-118832143D02*
X150367857Y-117932143D01*
X150282143Y-118060714D01*
X150196429Y-118146429D01*
X150110715Y-118189286D01*
D12*
X129930000Y-81587500D02*
G75*
G03X129930000Y-81587500I-300000J0D01*
G01*
D13*
X148850000Y-115250000D02*
X147850000Y-115250000D01*
X147850000Y-113900000D02*
X148850000Y-113900000D01*
X137550000Y-78400000D02*
X137550000Y-77400000D01*
X138900000Y-77400000D02*
X138900000Y-78400000D01*
X126625000Y-100825000D02*
X126625000Y-101525000D01*
X125425000Y-101525000D02*
X125425000Y-100825000D01*
X141739038Y-111078930D02*
G75*
G03X141739038Y-111078930I-250000J0D01*
G01*
D14*
X142089038Y-111328930D02*
X141739038Y-111678930D01*
D15*
X123843235Y-79291695D02*
X123645115Y-79291695D01*
X123843235Y-87292695D02*
X123645115Y-87292695D01*
X129243275Y-79291695D02*
X129243275Y-87292695D01*
X129243275Y-87292695D02*
X123843235Y-87292695D01*
X123645115Y-87292695D02*
X123645115Y-79291695D01*
X123843235Y-79291695D02*
X129243275Y-79291695D01*
D16*
X138542681Y-93983009D02*
X138542681Y-93094009D01*
X137653681Y-103304809D02*
X138542681Y-103304809D01*
X128331881Y-102415809D02*
X128331881Y-103304809D01*
X137577481Y-93424209D02*
X138212481Y-94059209D01*
X128331881Y-93094009D02*
X128331881Y-93983009D01*
X128331881Y-103304809D02*
X129220881Y-103304809D01*
X138542681Y-103304809D02*
X138542681Y-102415809D01*
X138542681Y-93094009D02*
X137653681Y-93094009D01*
X129220881Y-93094009D02*
X128331881Y-93094009D01*
D13*
X131780000Y-106580000D02*
X131780000Y-107580000D01*
X130430000Y-107580000D02*
X130430000Y-106580000D01*
D12*
X136730116Y-80625000D02*
G75*
G03X136730116Y-80625000I-430116J0D01*
G01*
D13*
X151263348Y-91526518D02*
X155763348Y-91526518D01*
X151263348Y-81526518D02*
X155763348Y-81526518D01*
X146513348Y-81526518D02*
X149513348Y-81526518D01*
X151263348Y-87176518D02*
G75*
G03X151263348Y-87176518I-350000J0D01*
G01*
X152513348Y-81526518D02*
X152513348Y-91526518D01*
X155763348Y-91526518D02*
X155763348Y-81526518D01*
X139013348Y-81526518D02*
X137763348Y-81526518D01*
X137763348Y-81526518D02*
X137763348Y-81776518D01*
X137763348Y-91526518D02*
X139013348Y-91526518D01*
X137763348Y-91276518D02*
X137763348Y-91526518D01*
D12*
X142919348Y-79775000D02*
X142919348Y-80575000D01*
X142919348Y-80575000D02*
X139719348Y-80575000D01*
X139719348Y-80575000D02*
X139719348Y-78975000D01*
X139719348Y-78975000D02*
X142919348Y-78975000D01*
X142919348Y-78975000D02*
X142919348Y-79775000D01*
D13*
X125650000Y-96685000D02*
X125650000Y-95985000D01*
X126850000Y-95985000D02*
X126850000Y-96685000D01*
X126575000Y-98350000D02*
X126575000Y-99050000D01*
X125375000Y-99050000D02*
X125375000Y-98350000D01*
X124775000Y-93250000D02*
X124775000Y-92550000D01*
X125975000Y-92550000D02*
X125975000Y-93250000D01*
X127131000Y-93252000D02*
X127131000Y-92552000D01*
X128331000Y-92552000D02*
X128331000Y-93252000D01*
X125975000Y-93250000D02*
X125975000Y-92550000D01*
X127175000Y-92550000D02*
X127175000Y-93250000D01*
X141225000Y-104800000D02*
X141925000Y-104800000D01*
X141925000Y-106000000D02*
X141225000Y-106000000D01*
X130350000Y-91475000D02*
X129650000Y-91475000D01*
X129650000Y-90275000D02*
X130350000Y-90275000D01*
X131744146Y-83086050D02*
X131744146Y-83786050D01*
X130544146Y-83786050D02*
X130544146Y-83086050D01*
X128900000Y-79200000D02*
X128200000Y-79200000D01*
X128200000Y-78000000D02*
X128900000Y-78000000D01*
X127555000Y-111230000D02*
X127555000Y-110530000D01*
X128755000Y-110530000D02*
X128755000Y-111230000D01*
X126355000Y-111220000D02*
X126355000Y-110520000D01*
X127555000Y-110520000D02*
X127555000Y-111220000D01*
X126305000Y-114550000D02*
X125605000Y-114550000D01*
X125605000Y-113350000D02*
X126305000Y-113350000D01*
X148525000Y-93400000D02*
X147825000Y-93400000D01*
X147825000Y-92200000D02*
X148525000Y-92200000D01*
X134775000Y-87475000D02*
X134775000Y-86775000D01*
X135975000Y-86775000D02*
X135975000Y-87475000D01*
X137175000Y-89200000D02*
X137175000Y-89900000D01*
X135975000Y-89900000D02*
X135975000Y-89200000D01*
X146325000Y-79800000D02*
X147025000Y-79800000D01*
X147025000Y-81000000D02*
X146325000Y-81000000D01*
X143141000Y-77675000D02*
X143841000Y-77675000D01*
X143841000Y-78875000D02*
X143141000Y-78875000D01*
X140550000Y-77650000D02*
X141250000Y-77650000D01*
X141250000Y-78850000D02*
X140550000Y-78850000D01*
X146125000Y-115700000D02*
X146125000Y-115000000D01*
X147325000Y-115000000D02*
X147325000Y-115700000D01*
X147325000Y-112525000D02*
X147325000Y-113225000D01*
X146125000Y-113225000D02*
X146125000Y-112525000D01*
X145275000Y-116875000D02*
X144575000Y-116875000D01*
X144575000Y-115675000D02*
X145275000Y-115675000D01*
X145000000Y-109250000D02*
X145000000Y-109950000D01*
X143800000Y-109950000D02*
X143800000Y-109250000D01*
D17*
X139248607Y-77200000D02*
G75*
G03X139248607Y-77200000I-223607J0D01*
G01*
D13*
X139025000Y-74950000D02*
X139025000Y-75950000D01*
X139025000Y-75950000D02*
X138525000Y-75950000D01*
X138525000Y-75950000D02*
X138525000Y-76450000D01*
X138525000Y-76450000D02*
X141525000Y-76450000D01*
X141525000Y-76450000D02*
X141525000Y-75950000D01*
X141525000Y-75950000D02*
X141025000Y-75950000D01*
X141025000Y-75950000D02*
X141025000Y-74950000D01*
X140025000Y-75200000D02*
X140275000Y-75450000D01*
X140025000Y-76200000D02*
X140025000Y-75200000D01*
X140025000Y-75200000D02*
X139775000Y-75450000D01*
X141025000Y-74950000D02*
X139025000Y-74950000D01*
X127100000Y-90400000D02*
X127100000Y-89400000D01*
X127100000Y-89400000D02*
X126850000Y-89650000D01*
X126850000Y-89650000D02*
X127350000Y-89650000D01*
X127350000Y-89650000D02*
X127100000Y-89400000D01*
D18*
X126850000Y-91400000D02*
G75*
G03X126850000Y-91400000I-250000J0D01*
G01*
D13*
X129650000Y-89150000D02*
X129650000Y-88150000D01*
X129650000Y-88150000D02*
X129400000Y-88400000D01*
X129400000Y-88400000D02*
X129900000Y-88400000D01*
X129900000Y-88400000D02*
X129650000Y-88150000D01*
D18*
X129400000Y-90150000D02*
G75*
G03X129400000Y-90150000I-250000J0D01*
G01*
D13*
X137190000Y-84375000D02*
X137190000Y-85075000D01*
X135990000Y-85075000D02*
X135990000Y-84375000D01*
X137190000Y-86775000D02*
X137190000Y-87475000D01*
X135990000Y-87475000D02*
X135990000Y-86775000D01*
X125035000Y-114680000D02*
X125035000Y-119180000D01*
X135535000Y-119180000D02*
X135535000Y-114680000D01*
X126035000Y-119930000D02*
X134535000Y-119930000D01*
X125035000Y-119180000D02*
X126035000Y-119180000D01*
X126035000Y-119180000D02*
X126035000Y-119930000D01*
X135535000Y-119180000D02*
X134535000Y-119180000D01*
X134535000Y-119180000D02*
X134535000Y-119930000D01*
X128285000Y-114680000D02*
X125035000Y-114680000D01*
X133285000Y-114680000D02*
X135535000Y-114680000D01*
X133285000Y-114680000D02*
X128285000Y-114680000D01*
X130476000Y-77949160D02*
X130476000Y-77900900D01*
X129774960Y-75150180D02*
X130476000Y-75150180D01*
X130476000Y-75150180D02*
X130476000Y-75399100D01*
X130476000Y-77949160D02*
X130476000Y-78149820D01*
X130476000Y-78149820D02*
X129774960Y-78149820D01*
X133850000Y-90000000D02*
X133850000Y-91000000D01*
X132500000Y-91000000D02*
X132500000Y-90000000D01*
X132491937Y-90001003D02*
X132491937Y-91001003D01*
X131141937Y-91001003D02*
X131141937Y-90001003D01*
X140450000Y-110350000D02*
X140450000Y-109350000D01*
X141800000Y-109350000D02*
X141800000Y-110350000D01*
X141825000Y-110250000D02*
X141825000Y-109250000D01*
X143175000Y-109250000D02*
X143175000Y-110250000D01*
X131035000Y-84780000D02*
X132035000Y-84780000D01*
X132035000Y-86130000D02*
X131035000Y-86130000D01*
X131025000Y-86130000D02*
X132025000Y-86130000D01*
X132025000Y-87480000D02*
X131025000Y-87480000D01*
X132169146Y-82736050D02*
X133169146Y-82736050D01*
X133169146Y-84086050D02*
X132169146Y-84086050D01*
X146650000Y-101650000D02*
X146650000Y-100650000D01*
X148000000Y-100650000D02*
X148000000Y-101650000D01*
X133925000Y-81625000D02*
X134925000Y-81625000D01*
X134925000Y-82975000D02*
X133925000Y-82975000D01*
X128475000Y-76150000D02*
X128475000Y-77150000D01*
X127125000Y-77150000D02*
X127125000Y-76150000D01*
X143050000Y-93625000D02*
X144050000Y-93625000D01*
X144050000Y-94975000D02*
X143050000Y-94975000D01*
X133750000Y-84575000D02*
X133750000Y-83575000D01*
X135100000Y-83575000D02*
X135100000Y-84575000D01*
X125775000Y-77125000D02*
X125775000Y-76125000D01*
X127125000Y-76125000D02*
X127125000Y-77125000D01*
X146150000Y-94975000D02*
X145150000Y-94975000D01*
X145150000Y-93625000D02*
X146150000Y-93625000D01*
X125000000Y-111390000D02*
X125000000Y-110390000D01*
X126350000Y-110390000D02*
X126350000Y-111390000D01*
X145300000Y-92150000D02*
X146300000Y-92150000D01*
X146300000Y-93500000D02*
X145300000Y-93500000D01*
X134625000Y-89975000D02*
X134625000Y-88975000D01*
X135975000Y-88975000D02*
X135975000Y-89975000D01*
X147665000Y-76735000D02*
X146665000Y-76735000D01*
X146665000Y-75385000D02*
X147665000Y-75385000D01*
X125400000Y-112015000D02*
X126400000Y-112015000D01*
X126400000Y-113365000D02*
X125400000Y-113365000D01*
X133925000Y-80275000D02*
X134925000Y-80275000D01*
X134925000Y-81625000D02*
X133925000Y-81625000D01*
X132550000Y-75450000D02*
X134550000Y-75450000D01*
X134550000Y-77600000D02*
X132550000Y-77600000D01*
X140975000Y-95025000D02*
X141975000Y-95025000D01*
X141975000Y-96375000D02*
X140975000Y-96375000D01*
X138530000Y-106560000D02*
X138530000Y-107560000D01*
X137180000Y-107560000D02*
X137180000Y-106560000D01*
X137180000Y-106560000D02*
X137180000Y-107560000D01*
X135830000Y-107560000D02*
X135830000Y-106560000D01*
X135840000Y-106570000D02*
X135840000Y-107570000D01*
X134490000Y-107570000D02*
X134490000Y-106570000D01*
X134490000Y-106570000D02*
X134490000Y-107570000D01*
X133140000Y-107570000D02*
X133140000Y-106570000D01*
X133140000Y-106580000D02*
X133140000Y-107580000D01*
X131790000Y-107580000D02*
X131790000Y-106580000D01*
X151250000Y-110050000D02*
X151750000Y-110050000D01*
X151750000Y-110050000D02*
X151750000Y-111550000D01*
X151750000Y-111550000D02*
X151250000Y-111550000D01*
X148250000Y-113050000D02*
X151250000Y-113050000D01*
X151250000Y-113050000D02*
X151250000Y-108550000D01*
X151250000Y-108550000D02*
X148250000Y-108550000D01*
X148250000Y-108550000D02*
X148250000Y-113050000D01*
D12*
X146638516Y-105650000D02*
G75*
G03X146638516Y-105650000I-538516J0D01*
G01*
X141700000Y-104450000D02*
X144100000Y-104450000D01*
X145100000Y-103450000D02*
X145100000Y-100450000D01*
X144100000Y-104450000D02*
X145100000Y-103450000D01*
X141700000Y-100450000D02*
X145100000Y-100450000D01*
X141700000Y-104450000D02*
X141700000Y-100450000D01*
D13*
X128164855Y-112205275D02*
X128164855Y-112855275D01*
X128164855Y-112855275D02*
X127814855Y-113205275D01*
X127814855Y-113205275D02*
X127164855Y-113205275D01*
X128264855Y-113255275D02*
G75*
G03X128264855Y-113255275I-50000J0D01*
G01*
X127164855Y-113205275D02*
X127164855Y-112205275D01*
X127164855Y-112205275D02*
X128164855Y-112205275D01*
D17*
X144128553Y-94925000D02*
G75*
G03X144128553Y-94925000I-353553J0D01*
G01*
D12*
X144275000Y-94925000D02*
X143475000Y-94925000D01*
X143475000Y-94925000D02*
X143475000Y-97925000D01*
X143475000Y-97925000D02*
X145075000Y-97925000D01*
X145075000Y-97925000D02*
X145075000Y-94925000D01*
X145075000Y-94925000D02*
X144275000Y-94925000D01*
D17*
X138768090Y-109601383D02*
G75*
G03X138768090Y-109601383I-353553J0D01*
G01*
D12*
X138414537Y-110101383D02*
X138414537Y-109301383D01*
X138414537Y-109301383D02*
X135414537Y-109301383D01*
X135414537Y-109301383D02*
X135414537Y-110901383D01*
X135414537Y-110901383D02*
X138414537Y-110901383D01*
X138414537Y-110901383D02*
X138414537Y-110101383D01*
D17*
X135768090Y-109601383D02*
G75*
G03X135768090Y-109601383I-353553J0D01*
G01*
D12*
X135414537Y-110101383D02*
X135414537Y-109301383D01*
X135414537Y-109301383D02*
X132414537Y-109301383D01*
X132414537Y-109301383D02*
X132414537Y-110901383D01*
X132414537Y-110901383D02*
X135414537Y-110901383D01*
X135414537Y-110901383D02*
X135414537Y-110101383D01*
D17*
X132788553Y-109605000D02*
G75*
G03X132788553Y-109605000I-353553J0D01*
G01*
D12*
X132435000Y-110105000D02*
X132435000Y-109305000D01*
X132435000Y-109305000D02*
X129435000Y-109305000D01*
X129435000Y-109305000D02*
X129435000Y-110905000D01*
X129435000Y-110905000D02*
X132435000Y-110905000D01*
X132435000Y-110905000D02*
X132435000Y-110105000D01*
D13*
X128275000Y-102925000D02*
X128275000Y-106125000D01*
X128275000Y-106125000D02*
X125675000Y-106125000D01*
X125675000Y-106125000D02*
X125675000Y-102925000D01*
X125675000Y-102925000D02*
X128275000Y-102925000D01*
X151250000Y-77225000D02*
X151750000Y-77225000D01*
X151750000Y-77225000D02*
X151750000Y-78725000D01*
X151750000Y-78725000D02*
X151250000Y-78725000D01*
X148250000Y-80225000D02*
X151250000Y-80225000D01*
X151250000Y-80225000D02*
X151250000Y-75725000D01*
X151250000Y-75725000D02*
X148250000Y-75725000D01*
X148250000Y-75725000D02*
X148250000Y-80225000D01*
X154180015Y-87669375D02*
X154180015Y-87193184D01*
X154465729Y-87764613D02*
X153465729Y-87431280D01*
X154465729Y-87097946D01*
X154465729Y-86764613D02*
X153465729Y-86764613D01*
X154465729Y-86193184D01*
X153465729Y-86193184D01*
X153465729Y-85859851D02*
X153465729Y-85288422D01*
X154465729Y-85574137D02*
X153465729Y-85574137D01*
%LPC*%
D10*
G36*
X143239038Y-113828930D02*
X144239038Y-113828930D01*
X144239038Y-112828930D01*
X143239038Y-112828930D01*
X143239038Y-113828930D01*
G37*
D19*
X130630000Y-81737500D03*
X131130000Y-81737500D03*
X131630000Y-81737500D03*
X132130000Y-81737500D03*
X132630000Y-81737500D03*
X132630000Y-78637500D03*
X132130000Y-78637500D03*
X131630000Y-78637500D03*
X131130000Y-78637500D03*
X130630000Y-78637500D03*
D20*
X132250000Y-79800000D03*
X131010000Y-79800000D03*
X132250000Y-80575000D03*
X131010000Y-80575000D03*
D21*
X149525000Y-98225000D03*
X149525000Y-102625000D03*
D22*
X147600000Y-114575000D03*
X149100000Y-114575000D03*
D23*
X138225000Y-77150000D03*
X138225000Y-78650000D03*
D24*
X126025000Y-100425000D03*
X126025000Y-101925000D03*
D25*
X141739038Y-112078930D03*
X141739038Y-112578930D03*
X141739038Y-113078930D03*
X141739038Y-113578930D03*
X141739038Y-114078930D03*
X141739038Y-114578930D03*
D26*
X142489038Y-115328930D03*
X142989038Y-115328930D03*
X143489038Y-115328930D03*
X143989038Y-115328930D03*
X144489038Y-115328930D03*
X144989038Y-115328930D03*
D25*
X145739038Y-114578930D03*
X145739038Y-114078930D03*
X145739038Y-113578930D03*
X145739038Y-113078930D03*
X145739038Y-112578930D03*
X145739038Y-112078930D03*
D26*
X144989038Y-111328930D03*
X144489038Y-111328930D03*
X143989038Y-111328930D03*
X143489038Y-111328930D03*
X142989038Y-111328930D03*
X142489038Y-111328930D03*
D27*
X143739038Y-113328930D03*
D28*
X126291795Y-82093315D03*
D29*
X126291795Y-84491075D03*
D30*
X126291795Y-87092035D03*
D31*
X128841955Y-80193395D03*
D32*
X128968955Y-81994255D03*
X128968955Y-82644495D03*
X128968955Y-83292195D03*
X128968955Y-83939895D03*
X128968955Y-84590135D03*
D31*
X128841955Y-86390995D03*
D30*
X126291795Y-79492355D03*
D33*
X137196481Y-92484409D03*
X136688481Y-92484409D03*
X136180481Y-92484409D03*
X135697881Y-92484409D03*
X135189881Y-92484409D03*
X134681881Y-92484409D03*
X134199281Y-92484409D03*
X133691281Y-92484409D03*
X133183281Y-92484409D03*
X132675281Y-92484409D03*
X132192681Y-92484409D03*
X131684681Y-92484409D03*
X131176681Y-92484409D03*
X130694081Y-92484409D03*
X130186081Y-92484409D03*
X129678081Y-92484409D03*
D34*
X127722281Y-94440209D03*
X127722281Y-94948209D03*
X127722281Y-95456209D03*
X127722281Y-95938809D03*
X127722281Y-96446809D03*
X127722281Y-96954809D03*
X127722281Y-97437409D03*
X127722281Y-97945409D03*
X127722281Y-98453409D03*
X127722281Y-98961409D03*
X127722281Y-99444009D03*
X127722281Y-99952009D03*
X127722281Y-100460009D03*
X127722281Y-100942609D03*
X127722281Y-101450609D03*
X127722281Y-101958609D03*
D33*
X129678081Y-103914409D03*
X130186081Y-103914409D03*
X130694081Y-103914409D03*
X131176681Y-103914409D03*
X131684681Y-103914409D03*
X132192681Y-103914409D03*
X132675281Y-103914409D03*
X133183281Y-103914409D03*
X133691281Y-103914409D03*
X134199281Y-103914409D03*
X134681881Y-103914409D03*
X135189881Y-103914409D03*
X135697881Y-103914409D03*
X136180481Y-103914409D03*
X136688481Y-103914409D03*
X137196481Y-103914409D03*
D34*
X139152281Y-101958609D03*
X139152281Y-101450609D03*
X139152281Y-100942609D03*
X139152281Y-100460009D03*
X139152281Y-99952009D03*
X139152281Y-99444009D03*
X139152281Y-98961409D03*
X139152281Y-98453409D03*
X139152281Y-97945409D03*
X139152281Y-97437409D03*
X139152281Y-96954809D03*
X139152281Y-96446809D03*
X139152281Y-95938809D03*
X139152281Y-95456209D03*
X139152281Y-94948209D03*
X139152281Y-94440209D03*
D23*
X131105000Y-107830000D03*
X131105000Y-106330000D03*
D35*
X136300000Y-79675000D03*
X136300000Y-79025000D03*
X136300000Y-78375000D03*
X134100000Y-78375000D03*
X134100000Y-79025000D03*
X134100000Y-79675000D03*
D36*
X138013348Y-82326518D03*
X138013348Y-83026518D03*
X138013348Y-83726518D03*
X138013348Y-84426518D03*
X138013348Y-85126518D03*
X138013348Y-85826518D03*
X138013348Y-86526518D03*
X138013348Y-87226518D03*
X138013348Y-87926518D03*
X138013348Y-88626518D03*
X138013348Y-89326518D03*
X138013348Y-90026518D03*
X138013348Y-90726518D03*
D37*
X150763348Y-81776518D03*
X150063348Y-81776518D03*
X139563348Y-91276518D03*
X140263348Y-91276518D03*
X140963348Y-91276518D03*
X141663348Y-91276518D03*
X142363348Y-91276518D03*
X143063348Y-91276518D03*
X143763348Y-91276518D03*
X144463348Y-91276518D03*
X145163348Y-91276518D03*
X145863348Y-91276518D03*
X146563348Y-91276518D03*
X147263348Y-91276518D03*
X147963348Y-91276518D03*
X148663348Y-91276518D03*
X149363348Y-91276518D03*
X150063348Y-91276518D03*
X150763348Y-91276518D03*
X145863348Y-81776518D03*
X145163348Y-81776518D03*
X144463348Y-81776518D03*
X143763348Y-81776518D03*
X143063348Y-81776518D03*
X142363348Y-81776518D03*
X141663348Y-81776518D03*
X140963348Y-81776518D03*
X140263348Y-81776518D03*
X139563348Y-81776518D03*
D38*
X142594348Y-79775000D03*
X140044348Y-79775000D03*
D24*
X126250000Y-97085000D03*
X126250000Y-95585000D03*
X125975000Y-97950000D03*
X125975000Y-99450000D03*
X125375000Y-93650000D03*
X125375000Y-92150000D03*
X127731000Y-93652000D03*
X127731000Y-92152000D03*
X126575000Y-93650000D03*
X126575000Y-92150000D03*
D39*
X140825000Y-105400000D03*
X142325000Y-105400000D03*
X130750000Y-90875000D03*
X129250000Y-90875000D03*
D24*
X131144146Y-82686050D03*
X131144146Y-84186050D03*
D39*
X129300000Y-78600000D03*
X127800000Y-78600000D03*
D24*
X128155000Y-111630000D03*
X128155000Y-110130000D03*
X126955000Y-111620000D03*
X126955000Y-110120000D03*
D39*
X126705000Y-113950000D03*
X125205000Y-113950000D03*
X148925000Y-92800000D03*
X147425000Y-92800000D03*
D24*
X135375000Y-87875000D03*
X135375000Y-86375000D03*
X136575000Y-88800000D03*
X136575000Y-90300000D03*
D39*
X145925000Y-80400000D03*
X147425000Y-80400000D03*
X142741000Y-78275000D03*
X144241000Y-78275000D03*
X140150000Y-78250000D03*
X141650000Y-78250000D03*
D24*
X146725000Y-116100000D03*
X146725000Y-114600000D03*
X146725000Y-112125000D03*
X146725000Y-113625000D03*
D39*
X145675000Y-116275000D03*
X144175000Y-116275000D03*
D24*
X144400000Y-108850000D03*
X144400000Y-110350000D03*
D40*
X138275000Y-76200000D03*
X141775000Y-76200000D03*
D41*
X139625000Y-76700000D03*
X140425000Y-76700000D03*
D42*
X128100000Y-90650000D03*
X126100000Y-90650000D03*
X130650000Y-89400000D03*
X128650000Y-89400000D03*
D24*
X136590000Y-83975000D03*
X136590000Y-85475000D03*
X136590000Y-86375000D03*
X136590000Y-87875000D03*
D43*
X133035000Y-115180000D03*
X132535000Y-115180000D03*
X132035000Y-115180000D03*
X131535000Y-115180000D03*
X131035000Y-115180000D03*
X130535000Y-115180000D03*
X130035000Y-115180000D03*
X129535000Y-115180000D03*
X129035000Y-115180000D03*
X128535000Y-115180000D03*
D44*
X134935000Y-117280000D03*
X125635000Y-117280000D03*
D43*
X128035000Y-115180000D03*
X127535000Y-115180000D03*
D45*
X149800000Y-94150000D03*
X147400000Y-106550000D03*
X149800000Y-106550000D03*
D46*
X128825000Y-75700000D03*
X128825000Y-77600000D03*
X130823980Y-76650000D03*
D23*
X133175000Y-91250000D03*
X133175000Y-89750000D03*
X131816937Y-91251003D03*
X131816937Y-89751003D03*
X141125000Y-109100000D03*
X141125000Y-110600000D03*
X142500000Y-109000000D03*
X142500000Y-110500000D03*
D22*
X132285000Y-85455000D03*
X130785000Y-85455000D03*
X132275000Y-86805000D03*
X130775000Y-86805000D03*
X133419146Y-83411050D03*
X131919146Y-83411050D03*
D23*
X147325000Y-100400000D03*
X147325000Y-101900000D03*
D22*
X135175000Y-82300000D03*
X133675000Y-82300000D03*
D23*
X127800000Y-77400000D03*
X127800000Y-75900000D03*
D22*
X144300000Y-94300000D03*
X142800000Y-94300000D03*
D23*
X134425000Y-83325000D03*
X134425000Y-84825000D03*
X126450000Y-75875000D03*
X126450000Y-77375000D03*
D22*
X144900000Y-94300000D03*
X146400000Y-94300000D03*
D23*
X125675000Y-110140000D03*
X125675000Y-111640000D03*
D22*
X146550000Y-92825000D03*
X145050000Y-92825000D03*
D23*
X135300000Y-88725000D03*
X135300000Y-90225000D03*
D22*
X146415000Y-76060000D03*
X147915000Y-76060000D03*
X126650000Y-112690000D03*
X125150000Y-112690000D03*
X135175000Y-80950000D03*
X133675000Y-80950000D03*
D47*
X135000000Y-76525000D03*
X132100000Y-76525000D03*
D22*
X142225000Y-95700000D03*
X140725000Y-95700000D03*
D23*
X137855000Y-107810000D03*
X137855000Y-106310000D03*
X136505000Y-107810000D03*
X136505000Y-106310000D03*
X135165000Y-107820000D03*
X135165000Y-106320000D03*
X133815000Y-107820000D03*
X133815000Y-106320000D03*
X132465000Y-107830000D03*
X132465000Y-106330000D03*
D48*
X149050000Y-112750000D03*
X150450000Y-112750000D03*
X150450000Y-108850000D03*
X149050000Y-108850000D03*
D49*
X150550000Y-108775000D03*
X150550000Y-112825000D03*
D50*
X146025000Y-104355000D03*
X146025000Y-103085000D03*
X146025000Y-101815000D03*
X146025000Y-100545000D03*
X140775000Y-100545000D03*
X140775000Y-101815000D03*
X140775000Y-103085000D03*
X140775000Y-104355000D03*
D51*
X143400000Y-102450000D03*
D52*
X127664855Y-112705275D03*
X127364855Y-112705275D03*
X127964855Y-112405275D03*
X127664855Y-112405275D03*
X127364855Y-112405275D03*
X127964855Y-113005275D03*
X127664855Y-113005275D03*
X127364855Y-113005275D03*
X127964855Y-112705275D03*
D53*
X143075000Y-96425000D03*
X143075000Y-95475000D03*
X143075000Y-97375000D03*
X145475000Y-97375000D03*
X145475000Y-96425000D03*
X145475000Y-95475000D03*
D41*
X136914537Y-108901383D03*
X137864537Y-108901383D03*
X135964537Y-108901383D03*
X135964537Y-111301383D03*
X136914537Y-111301383D03*
X137864537Y-111301383D03*
X133914537Y-108901383D03*
X134864537Y-108901383D03*
X132964537Y-108901383D03*
X132964537Y-111301383D03*
X133914537Y-111301383D03*
X134864537Y-111301383D03*
X130935000Y-108905000D03*
X131885000Y-108905000D03*
X129985000Y-108905000D03*
X129985000Y-111305000D03*
X130935000Y-111305000D03*
X131885000Y-111305000D03*
D54*
X126175000Y-103425000D03*
X126175000Y-105625000D03*
X127775000Y-103425000D03*
X127775000Y-105625000D03*
D48*
X149050000Y-79925000D03*
X150450000Y-79925000D03*
X150450000Y-76025000D03*
X149050000Y-76025000D03*
D49*
X150550000Y-75950000D03*
X150550000Y-80000000D03*
D55*
X128035000Y-109060000D03*
X128035000Y-108560000D03*
X128035000Y-108060000D03*
X128035000Y-107560000D03*
X126035000Y-107560000D03*
X126035000Y-108060000D03*
X126035000Y-108560000D03*
X126035000Y-109060000D03*
D56*
X127035000Y-108310000D03*
D57*
X125050000Y-95225000D03*
M02*
