G04 #@! TF.FileFunction,Copper,L2,Bot,Signal*
%FSLAX46Y46*%
G04 Gerber Fmt 4.6, Leading zero omitted, Abs format (unit mm)*
G04 Created by KiCad (PCBNEW 4.0.1-stable) date 11/28/2016 11:50:16 AM*
%MOMM*%
G01*
G04 APERTURE LIST*
%ADD10C,0.100000*%
%ADD11R,3.800000X3.800000*%
%ADD12R,4.000000X4.000000*%
%ADD13C,1.000000*%
%ADD14C,1.800000*%
%ADD15C,0.800000*%
%ADD16C,0.609600*%
%ADD17C,0.300000*%
%ADD18C,0.150000*%
%ADD19C,0.500000*%
G04 APERTURE END LIST*
D10*
D11*
X141000000Y-78740000D03*
D12*
X127865000Y-78740000D03*
D13*
X149600000Y-96350000D03*
X147600000Y-96350000D03*
X149600000Y-98350000D03*
X147600000Y-98350000D03*
X149600000Y-100350000D03*
X147600000Y-100350000D03*
X149600000Y-102350000D03*
X147600000Y-102350000D03*
X149600000Y-104350000D03*
X147600000Y-104350000D03*
D14*
X149800000Y-94150000D03*
X147400000Y-106550000D03*
X149800000Y-106550000D03*
D15*
X150550000Y-108775000D03*
X150550000Y-112825000D03*
X150550000Y-75950000D03*
X150550000Y-80000000D03*
D16*
X135672678Y-94321255D03*
X137307288Y-105289437D03*
X137267829Y-77682584D03*
X136477794Y-83120188D03*
X141049078Y-107340743D03*
X147225000Y-103300000D03*
X140825000Y-105325000D03*
X136850000Y-117300000D03*
X136825000Y-115475000D03*
X136825000Y-113725000D03*
X134850000Y-113775000D03*
X133450000Y-119125000D03*
X134950000Y-119125000D03*
X134935000Y-117280000D03*
X134925000Y-115450000D03*
X142949466Y-102270218D03*
X143803637Y-102270218D03*
X142152295Y-102289686D03*
X145325000Y-105000000D03*
X144575000Y-105000000D03*
X143825000Y-105000000D03*
X143075000Y-105000000D03*
X144575000Y-105750000D03*
X143825000Y-105750000D03*
X141679818Y-105763099D03*
X143475000Y-107375000D03*
X143075000Y-105750000D03*
X127000000Y-107625000D03*
X126584286Y-106545190D03*
X135209403Y-93675811D03*
X134050000Y-97415599D03*
X135075000Y-100425000D03*
X135100000Y-98875000D03*
X134100000Y-98875000D03*
X135975000Y-96250000D03*
X134975000Y-96250000D03*
X133975000Y-96250000D03*
X132975000Y-96250000D03*
X135975000Y-95450000D03*
X134975000Y-95450000D03*
X133975000Y-95450000D03*
X133100000Y-98875000D03*
X132975000Y-95450000D03*
X128968955Y-84647287D03*
X131144146Y-84186050D03*
X142152295Y-103039686D03*
X143152295Y-103039686D03*
X144152295Y-103039686D03*
X140927813Y-98312112D03*
X141927813Y-98312112D03*
X142927813Y-98312112D03*
X143927813Y-98312112D03*
X136528556Y-105516174D03*
X136206874Y-102352226D03*
X141642794Y-78281805D03*
X138200000Y-77900000D03*
X137320198Y-78600000D03*
X136055686Y-79777080D03*
X134335796Y-80304803D03*
X132502596Y-80281512D03*
X125719015Y-89645188D03*
X125350000Y-92675000D03*
X125582134Y-99416324D03*
X125325000Y-96425000D03*
X144637990Y-96768265D03*
X143944600Y-96780430D03*
X144625000Y-98300000D03*
X144620198Y-97550000D03*
X143929802Y-97575000D03*
X125945198Y-112950000D03*
X128502595Y-112935084D03*
X146975000Y-78050000D03*
X147000000Y-77175000D03*
X145475000Y-76500000D03*
X146150000Y-77200000D03*
X146125000Y-78075000D03*
X145375000Y-77325000D03*
X144700000Y-76650000D03*
X143125000Y-77025000D03*
X144950000Y-78950000D03*
X143725000Y-79250000D03*
X143725000Y-78400000D03*
X143725000Y-77600000D03*
X150525000Y-78625000D03*
X150500000Y-77300000D03*
X147475000Y-108975000D03*
X146475000Y-108975000D03*
X145475000Y-108975000D03*
X147475000Y-108175000D03*
X146475000Y-108175000D03*
X145475000Y-107375000D03*
X144475000Y-107375000D03*
X142475000Y-107375000D03*
X145475000Y-108175000D03*
X144475000Y-108175000D03*
X143475000Y-108175000D03*
X142475000Y-108175000D03*
X147175000Y-95225000D03*
X146325000Y-96100000D03*
X146725000Y-117100000D03*
X145650000Y-117100000D03*
X143250000Y-116175000D03*
X146075000Y-111275000D03*
X143750000Y-112325000D03*
X142750000Y-113325000D03*
X144750000Y-113325000D03*
X136835888Y-110430932D03*
X136843150Y-109755542D03*
X136117932Y-110446571D03*
X137540051Y-110451434D03*
X138260591Y-110447642D03*
X138256799Y-109795364D03*
X137540051Y-109783987D03*
X136117286Y-109789628D03*
X135423703Y-109782441D03*
X135423703Y-110432899D03*
X134018569Y-109786035D03*
X134751683Y-109796816D03*
X134744495Y-110446569D03*
X134022163Y-110422118D03*
X133332173Y-110422118D03*
X132020190Y-110450198D03*
X132020190Y-109759802D03*
X133329294Y-109741469D03*
X135445191Y-85275000D03*
X138528389Y-91350000D03*
X126965331Y-87101650D03*
X128279127Y-87101648D03*
X124925000Y-108025000D03*
X125373536Y-109118948D03*
X147900000Y-102900000D03*
X139527899Y-104581417D03*
X133828393Y-90593213D03*
X134660381Y-79065804D03*
X127450000Y-118725000D03*
X128150000Y-118725000D03*
X127450000Y-117975000D03*
X129550000Y-118725000D03*
X128850000Y-118725000D03*
X129550000Y-117975000D03*
X128850000Y-117975000D03*
X128150000Y-117975000D03*
X134125000Y-77425000D03*
X135660976Y-77798705D03*
X135000000Y-77900000D03*
X134125000Y-76725000D03*
X134150000Y-76025000D03*
X126075000Y-114850000D03*
X126725000Y-114800000D03*
X136400000Y-76775000D03*
X135875000Y-77150000D03*
X136375000Y-76125000D03*
X135850000Y-76500000D03*
X138858536Y-81621682D03*
X143640191Y-80471706D03*
X138645188Y-79720876D03*
X140501681Y-93515949D03*
X138345179Y-80490299D03*
X139626997Y-92995186D03*
X127152564Y-89320743D03*
X129550000Y-97325000D03*
X128650000Y-92200000D03*
X129550000Y-96225000D03*
X131487590Y-105464701D03*
X129652928Y-105455646D03*
X137601916Y-80821726D03*
X139068216Y-93636142D03*
X132282990Y-102540632D03*
X130050000Y-109759802D03*
X137819644Y-101607117D03*
X146025000Y-103085000D03*
X134619167Y-89366880D03*
X132230191Y-85455000D03*
X135159121Y-90989371D03*
X132230191Y-86805000D03*
X144558046Y-79856673D03*
X137900000Y-94849089D03*
X140500000Y-99800000D03*
X146450000Y-99800000D03*
X133024279Y-100349277D03*
X132199508Y-95824011D03*
X133042396Y-102233816D03*
X130397908Y-110435978D03*
X132550000Y-117575000D03*
X134462277Y-105287277D03*
X143650000Y-94275000D03*
X137825000Y-96700000D03*
X136410521Y-98340168D03*
X136569713Y-99964920D03*
X146975000Y-101100000D03*
X137507470Y-99248952D03*
X137485222Y-98256752D03*
X148125000Y-95100000D03*
X147600000Y-96350000D03*
X144702020Y-95914732D03*
X143337599Y-76055765D03*
X146153956Y-79070899D03*
X137124560Y-75484379D03*
X137175000Y-94500000D03*
X133791395Y-94528159D03*
X133021748Y-88791411D03*
X131900000Y-93849989D03*
X142175000Y-94300000D03*
X131610580Y-102187256D03*
X130180368Y-107805368D03*
X132475000Y-90475000D03*
X132722491Y-93789459D03*
X134900000Y-101850000D03*
X145400000Y-103725000D03*
X141709610Y-96595729D03*
X140650000Y-96604802D03*
X137181940Y-102019843D03*
X138702063Y-102611301D03*
X138805528Y-107696519D03*
X138800000Y-106275191D03*
X130050000Y-78600000D03*
X129750000Y-77750000D03*
X129900000Y-77000000D03*
X129300000Y-76625000D03*
X128600000Y-76625000D03*
X127900000Y-76625000D03*
X127200000Y-76625000D03*
X126500000Y-76625000D03*
X135420440Y-79215152D03*
X134379802Y-82525000D03*
D17*
X140825000Y-105325000D02*
X141822397Y-104327603D01*
X141822397Y-104327603D02*
X144875399Y-104327603D01*
X144875399Y-104327603D02*
X144897796Y-104350000D01*
X144897796Y-104350000D02*
X147600000Y-104350000D01*
X140825000Y-105325000D02*
X140520201Y-105629799D01*
X137647650Y-105629799D02*
X137307288Y-105289437D01*
X140520201Y-105629799D02*
X137647650Y-105629799D01*
X136477794Y-93516139D02*
X135672678Y-94321255D01*
X136477794Y-83120188D02*
X136477794Y-93516139D01*
D18*
X136477794Y-83120188D02*
X136622347Y-82975635D01*
X136622347Y-82975635D02*
X136622347Y-78328066D01*
X136622347Y-78328066D02*
X137267829Y-77682584D01*
D17*
X140825000Y-107116665D02*
X141049078Y-107340743D01*
X140825000Y-105325000D02*
X140825000Y-107116665D01*
X147600000Y-104350000D02*
X147600000Y-103675000D01*
X147600000Y-103675000D02*
X147225000Y-103300000D01*
D18*
X136825000Y-115475000D02*
X136825000Y-117275000D01*
X136825000Y-117275000D02*
X136850000Y-117300000D01*
X136250000Y-115475000D02*
X136825000Y-115475000D01*
X136825000Y-115475000D02*
X137250000Y-115475000D01*
X136825000Y-113725000D02*
X136825000Y-115475000D01*
X134925000Y-115450000D02*
X134925000Y-113850000D01*
X134925000Y-113850000D02*
X134850000Y-113775000D01*
X134925000Y-115450000D02*
X134925000Y-117270000D01*
X134925000Y-117270000D02*
X134935000Y-117280000D01*
X137250000Y-117475000D02*
X136250000Y-117475000D01*
X138250000Y-117475000D02*
X137250000Y-117475000D01*
X139250000Y-117475000D02*
X138250000Y-117475000D01*
X140250000Y-117475000D02*
X139250000Y-117475000D01*
X139250000Y-118475000D02*
X140250000Y-118475000D01*
X138250000Y-118475000D02*
X139250000Y-118475000D01*
X137250000Y-118475000D02*
X138250000Y-118475000D01*
X136250000Y-118475000D02*
X137250000Y-118475000D01*
X136250000Y-117475000D02*
X136250000Y-118475000D01*
X136250000Y-116475000D02*
X136250000Y-117475000D01*
X136250000Y-115475000D02*
X136250000Y-116475000D01*
X137250000Y-116475000D02*
X136250000Y-116475000D01*
X138250000Y-116475000D02*
X137250000Y-116475000D01*
X139250000Y-116475000D02*
X138250000Y-116475000D01*
X140250000Y-116475000D02*
X139250000Y-116475000D01*
X139250000Y-115475000D02*
X140250000Y-115475000D01*
X138250000Y-115475000D02*
X139250000Y-115475000D01*
X137250000Y-115475000D02*
X138250000Y-115475000D01*
X142949466Y-102270218D02*
X143803637Y-102270218D01*
X142152295Y-102289686D02*
X142929998Y-102289686D01*
X142929998Y-102289686D02*
X142949466Y-102270218D01*
X142152295Y-103039686D02*
X142152295Y-102289686D01*
X127000000Y-107625000D02*
X127000000Y-106960904D01*
X127000000Y-106960904D02*
X126584286Y-106545190D01*
X134100000Y-98875000D02*
X134100000Y-97465599D01*
X134100000Y-97465599D02*
X134050000Y-97415599D01*
X135100000Y-98875000D02*
X135100000Y-100400000D01*
X135100000Y-100400000D02*
X135075000Y-100425000D01*
X133100000Y-98875000D02*
X133100000Y-95575000D01*
X133100000Y-95575000D02*
X132975000Y-95450000D01*
D17*
X128968955Y-84647287D02*
X130682909Y-84647287D01*
X130682909Y-84647287D02*
X131144146Y-84186050D01*
X132502596Y-80281512D02*
X133575000Y-80281512D01*
X133575000Y-80281512D02*
X134312505Y-80281512D01*
D18*
X134175000Y-78525000D02*
X133575000Y-79125000D01*
X133575000Y-79125000D02*
X133575000Y-80281512D01*
X135600000Y-78525000D02*
X134175000Y-78525000D01*
X136055686Y-78980686D02*
X135600000Y-78525000D01*
X136055686Y-79777080D02*
X136055686Y-78980686D01*
X143152295Y-103039686D02*
X142152295Y-103039686D01*
X144152295Y-103039686D02*
X143152295Y-103039686D01*
X141927813Y-98312112D02*
X140927813Y-98312112D01*
X142927813Y-98312112D02*
X141927813Y-98312112D01*
X143927813Y-98312112D02*
X142927813Y-98312112D01*
X143939925Y-98300000D02*
X143927813Y-98312112D01*
X144625000Y-98300000D02*
X143939925Y-98300000D01*
X141642794Y-78712857D02*
X141642794Y-78281805D01*
X141642794Y-78947492D02*
X141642794Y-78712857D01*
X141648355Y-78953053D02*
X141642794Y-78947492D01*
D17*
X142371947Y-78953053D02*
X141648355Y-78953053D01*
X143725000Y-77600000D02*
X142371947Y-78953053D01*
D18*
X142905646Y-78953053D02*
X141648355Y-78953053D01*
X144170039Y-80791852D02*
X144170039Y-80217446D01*
X142150000Y-82811891D02*
X144170039Y-80791852D01*
X144170039Y-80217446D02*
X142905646Y-78953053D01*
D17*
X136055686Y-79777080D02*
X136055686Y-79880686D01*
X134312505Y-80281512D02*
X134335796Y-80304803D01*
X125350000Y-90014203D02*
X125719015Y-89645188D01*
X125350000Y-92675000D02*
X125350000Y-90014203D01*
X125325000Y-96425000D02*
X125325000Y-92700000D01*
X125325000Y-92700000D02*
X125350000Y-92675000D01*
X125325000Y-99159190D02*
X125582134Y-99416324D01*
X125325000Y-96425000D02*
X125325000Y-99159190D01*
D18*
X144625825Y-96780430D02*
X144637990Y-96768265D01*
X143944600Y-96780430D02*
X144625825Y-96780430D01*
X143929802Y-97575000D02*
X144595198Y-97575000D01*
X144595198Y-97575000D02*
X144620198Y-97550000D01*
D19*
X125945198Y-112950000D02*
X128487679Y-112950000D01*
X128487679Y-112950000D02*
X128502595Y-112935084D01*
D18*
X125960114Y-112935084D02*
X125945198Y-112950000D01*
D17*
X147000000Y-77175000D02*
X147000000Y-78025000D01*
X147000000Y-78025000D02*
X146975000Y-78050000D01*
X146150000Y-77200000D02*
X146150000Y-77175000D01*
X146150000Y-77175000D02*
X145475000Y-76500000D01*
X145375000Y-77325000D02*
X146125000Y-78075000D01*
X143725000Y-77600000D02*
X143750000Y-77600000D01*
X143750000Y-77600000D02*
X144700000Y-76650000D01*
X143725000Y-78400000D02*
X144300000Y-78400000D01*
D18*
X146325000Y-96100000D02*
X146325000Y-96075000D01*
X146325000Y-96075000D02*
X147175000Y-95225000D01*
D17*
X126965333Y-87101648D02*
X126965331Y-87101650D01*
X128279127Y-87101648D02*
X126965333Y-87101648D01*
D18*
X124925000Y-108025000D02*
X124925000Y-108670412D01*
X124925000Y-108670412D02*
X125373536Y-109118948D01*
X147600000Y-102350000D02*
X147600000Y-102600000D01*
X147600000Y-102600000D02*
X147900000Y-102900000D01*
D19*
X136539921Y-104581417D02*
X139527899Y-104581417D01*
X130854078Y-101054078D02*
X133012582Y-101054078D01*
X130525000Y-100725000D02*
X130854078Y-101054078D01*
X133012582Y-101054078D02*
X136539921Y-104581417D01*
D18*
X133828393Y-90162161D02*
X133789352Y-90123120D01*
X133789352Y-88789352D02*
X133050000Y-88050000D01*
X133828393Y-90593213D02*
X133828393Y-90162161D01*
X133789352Y-90123120D02*
X133789352Y-88789352D01*
X133050000Y-88050000D02*
X131650000Y-88050000D01*
X126725000Y-114800000D02*
X126420201Y-115104799D01*
X126420201Y-116245201D02*
X128150000Y-117975000D01*
X126420201Y-115104799D02*
X126420201Y-116245201D01*
D17*
X126075000Y-114850000D02*
X126675000Y-114850000D01*
X126675000Y-114850000D02*
X126725000Y-114800000D01*
D18*
X135875000Y-77150000D02*
X136025000Y-77150000D01*
X136025000Y-77150000D02*
X136400000Y-76775000D01*
X135850000Y-76500000D02*
X136000000Y-76500000D01*
X136000000Y-76500000D02*
X136375000Y-76125000D01*
X142490215Y-81621682D02*
X138858536Y-81621682D01*
X143640191Y-80471706D02*
X142490215Y-81621682D01*
X138874999Y-80821137D02*
X138874999Y-79950687D01*
X140501681Y-84048963D02*
X138328735Y-81876017D01*
X138328735Y-81876017D02*
X138328735Y-81367401D01*
X138874999Y-79950687D02*
X138645188Y-79720876D01*
X138328735Y-81367401D02*
X138874999Y-80821137D01*
X140501681Y-93515949D02*
X140501681Y-84048963D01*
X139626997Y-92995186D02*
X139626997Y-83721804D01*
X138028724Y-82123531D02*
X138028724Y-81243109D01*
X139626997Y-83721804D02*
X138028724Y-82123531D01*
X138028724Y-81243109D02*
X138345179Y-80926654D01*
X138345179Y-80926654D02*
X138345179Y-80490299D01*
X127152564Y-90702564D02*
X127152564Y-89320743D01*
X128650000Y-92200000D02*
X127152564Y-90702564D01*
X129550000Y-97325000D02*
X129550000Y-96225000D01*
X131478535Y-105455646D02*
X131487590Y-105464701D01*
X129652928Y-105455646D02*
X131478535Y-105455646D01*
X137601916Y-92169842D02*
X137601916Y-80821726D01*
X139068216Y-93636142D02*
X137601916Y-92169842D01*
X132587789Y-102845431D02*
X132282990Y-102540632D01*
X131854192Y-108020808D02*
X131854192Y-106795808D01*
X130200000Y-109675000D02*
X131854192Y-108020808D01*
X131854192Y-106795808D02*
X132587789Y-106062211D01*
X132587789Y-106062211D02*
X132587789Y-102845431D01*
X138250696Y-101607117D02*
X137819644Y-101607117D01*
X143996138Y-101607117D02*
X138250696Y-101607117D01*
X144800000Y-102410979D02*
X143996138Y-101607117D01*
X144870085Y-102410979D02*
X144800000Y-102410979D01*
X145900000Y-103085000D02*
X145225979Y-102410979D01*
X146025000Y-103085000D02*
X145900000Y-103085000D01*
X145225979Y-102410979D02*
X144800000Y-102410979D01*
X134619167Y-87843976D02*
X134619167Y-89366880D01*
X132230191Y-85455000D02*
X134619167Y-87843976D01*
X134089363Y-89919613D02*
X135159121Y-90989371D01*
X134089363Y-88664172D02*
X134089363Y-89919613D01*
X132230191Y-86805000D02*
X134089363Y-88664172D01*
X144558046Y-80862661D02*
X144558046Y-79856673D01*
X142429305Y-94829801D02*
X143120199Y-94138907D01*
X143120199Y-94138907D02*
X143120199Y-82300508D01*
X143120199Y-82300508D02*
X144558046Y-80862661D01*
X139075000Y-94829801D02*
X142429305Y-94829801D01*
X138696732Y-94829801D02*
X139075000Y-94829801D01*
X137900000Y-94849089D02*
X138331052Y-94849089D01*
X138331052Y-94849089D02*
X138350340Y-94829801D01*
X138350340Y-94829801D02*
X139075000Y-94829801D01*
X146450000Y-99800000D02*
X140500000Y-99800000D01*
X132199508Y-95824011D02*
X132199508Y-99524506D01*
X132199508Y-99524506D02*
X133024279Y-100349277D01*
X133042396Y-106282880D02*
X133042396Y-102233816D01*
X130397908Y-110435978D02*
X132154202Y-108679684D01*
X132154202Y-107171074D02*
X133042396Y-106282880D01*
X132154202Y-108679684D02*
X132154202Y-107171074D01*
X132550000Y-117575000D02*
X132550000Y-107199554D01*
X132550000Y-107199554D02*
X134462277Y-105287277D01*
X143650000Y-94275000D02*
X141859072Y-96065928D01*
X141859072Y-96065928D02*
X138459072Y-96065928D01*
X138459072Y-96065928D02*
X137825000Y-96700000D01*
X136410521Y-98969591D02*
X136410521Y-98340168D01*
X146888093Y-100354801D02*
X137795731Y-100354801D01*
X147600000Y-100350000D02*
X146892894Y-100350000D01*
X146892894Y-100350000D02*
X146888093Y-100354801D01*
X137795731Y-100354801D02*
X136410521Y-98969591D01*
X146975000Y-101100000D02*
X146670201Y-100795201D01*
X136874512Y-100269719D02*
X136569713Y-99964920D01*
X137399994Y-100795201D02*
X136874512Y-100269719D01*
X146670201Y-100795201D02*
X137399994Y-100795201D01*
X148350000Y-101100000D02*
X146975000Y-101100000D01*
X149600000Y-102350000D02*
X148350000Y-101100000D01*
X146683058Y-99248952D02*
X137507470Y-99248952D01*
X146810649Y-99376543D02*
X146683058Y-99248952D01*
X148626543Y-99376543D02*
X146810649Y-99376543D01*
X149600000Y-100350000D02*
X148626543Y-99376543D01*
X138173658Y-98945188D02*
X137485222Y-98256752D01*
X146904280Y-98945188D02*
X138173658Y-98945188D01*
X148874999Y-99075001D02*
X147034093Y-99075001D01*
X149600000Y-98350000D02*
X148874999Y-99075001D01*
X147034093Y-99075001D02*
X146904280Y-98945188D01*
X147600000Y-98350000D02*
X148325001Y-97624999D01*
X148325001Y-97624999D02*
X148325001Y-95300001D01*
X148325001Y-95300001D02*
X148125000Y-95100000D01*
X146153956Y-94462796D02*
X144702020Y-95914732D01*
X146153956Y-79070899D02*
X146153956Y-94462796D01*
X137124560Y-75484379D02*
X142766213Y-75484379D01*
X142766213Y-75484379D02*
X143337599Y-76055765D01*
X137175000Y-94500000D02*
X137479799Y-94195201D01*
X137479799Y-94195201D02*
X142070201Y-94195201D01*
X142070201Y-94195201D02*
X142175000Y-94300000D01*
X131900000Y-94281041D02*
X132168959Y-94550000D01*
X132168959Y-94550000D02*
X133769554Y-94550000D01*
X133769554Y-94550000D02*
X133791395Y-94528159D01*
X131900000Y-89900659D02*
X133009248Y-88791411D01*
X133009248Y-88791411D02*
X133021748Y-88791411D01*
X131900000Y-93849989D02*
X131900000Y-89900659D01*
X142155721Y-94319279D02*
X142175000Y-94300000D01*
X131900000Y-93849989D02*
X131900000Y-94281041D01*
X131900000Y-94281041D02*
X131938238Y-94319279D01*
X132224990Y-105760746D02*
X132224990Y-103373546D01*
X132224990Y-103373546D02*
X131610580Y-102759136D01*
X131610580Y-102759136D02*
X131610580Y-102187256D01*
X131435736Y-106550000D02*
X132224990Y-105760746D01*
X130180368Y-107805368D02*
X131435736Y-106550000D01*
X131435736Y-106550000D02*
X131504801Y-106480935D01*
X132475000Y-90475000D02*
X132475000Y-93541968D01*
X132475000Y-93541968D02*
X132722491Y-93789459D01*
X137006997Y-103956997D02*
X134900000Y-101850000D01*
X139010104Y-103725000D02*
X138778107Y-103956997D01*
X138778107Y-103956997D02*
X137006997Y-103956997D01*
X145400000Y-103725000D02*
X139010104Y-103725000D01*
X140650000Y-96604802D02*
X141700537Y-96604802D01*
X141700537Y-96604802D02*
X141709610Y-96595729D01*
X137773398Y-102611301D02*
X137486739Y-102324642D01*
X138702063Y-102611301D02*
X137773398Y-102611301D01*
X137486739Y-102324642D02*
X137181940Y-102019843D01*
X138800000Y-106275191D02*
X138800000Y-107690991D01*
X138800000Y-107690991D02*
X138805528Y-107696519D01*
D19*
X128600000Y-76625000D02*
X128600000Y-78005000D01*
X128600000Y-78005000D02*
X127865000Y-78740000D01*
X129300000Y-76625000D02*
X129300000Y-77305000D01*
X129300000Y-77305000D02*
X127865000Y-78740000D01*
X129900000Y-77000000D02*
X129605000Y-77000000D01*
X129605000Y-77000000D02*
X127865000Y-78740000D01*
X130050000Y-78600000D02*
X130050000Y-77150000D01*
X130050000Y-77150000D02*
X129900000Y-77000000D01*
X129900000Y-77000000D02*
X129900000Y-78450000D01*
X129900000Y-78450000D02*
X130050000Y-78600000D01*
X129750000Y-77750000D02*
X129750000Y-78300000D01*
X129750000Y-78300000D02*
X130050000Y-78600000D01*
X129900000Y-77000000D02*
X129900000Y-77600000D01*
X129900000Y-77600000D02*
X129750000Y-77750000D01*
X129300000Y-76625000D02*
X129525000Y-76625000D01*
X129525000Y-76625000D02*
X129900000Y-77000000D01*
X126500000Y-76625000D02*
X129300000Y-76625000D01*
X126500000Y-76625000D02*
X127900000Y-76625000D01*
X127200000Y-76625000D02*
X127200000Y-78075000D01*
X127200000Y-78075000D02*
X127865000Y-78740000D01*
X126500000Y-76625000D02*
X126500000Y-77375000D01*
X126500000Y-77375000D02*
X127865000Y-78740000D01*
D18*
X135420440Y-81484362D02*
X135420440Y-79215152D01*
X134379802Y-82525000D02*
X135420440Y-81484362D01*
X149520198Y-96270198D02*
X149600000Y-96350000D01*
D17*
G36*
X136546447Y-75299534D02*
X136519865Y-75363549D01*
X136519655Y-75604153D01*
X136611536Y-75826523D01*
X136615335Y-75830329D01*
X136586926Y-77833157D01*
X136357182Y-78062901D01*
X136275892Y-78184559D01*
X136260285Y-78263024D01*
X136247347Y-78328066D01*
X136247347Y-78642017D01*
X135865165Y-78259835D01*
X135743507Y-78178545D01*
X135600000Y-78150000D01*
X134175000Y-78150000D01*
X134031493Y-78178545D01*
X133909835Y-78259835D01*
X133309835Y-78859835D01*
X133228545Y-78981493D01*
X133228545Y-78981494D01*
X133200000Y-79125000D01*
X133200000Y-79831512D01*
X132907952Y-79831512D01*
X132845635Y-79769086D01*
X132623426Y-79676817D01*
X132382822Y-79676607D01*
X132160452Y-79768488D01*
X131990170Y-79938473D01*
X131897901Y-80160682D01*
X131897691Y-80401286D01*
X131989572Y-80623656D01*
X132159557Y-80793938D01*
X132381766Y-80886207D01*
X132622370Y-80886417D01*
X132844740Y-80794536D01*
X132907874Y-80731512D01*
X133907190Y-80731512D01*
X133992757Y-80817229D01*
X134214966Y-80909498D01*
X134455570Y-80909708D01*
X134677940Y-80817827D01*
X134848222Y-80647842D01*
X134940491Y-80425633D01*
X134940701Y-80185029D01*
X134848820Y-79962659D01*
X134678835Y-79792377D01*
X134456626Y-79700108D01*
X134216022Y-79699898D01*
X133993652Y-79791779D01*
X133953850Y-79831512D01*
X133950000Y-79831512D01*
X133950000Y-79280330D01*
X134330330Y-78900000D01*
X134896434Y-78900000D01*
X134815745Y-79094322D01*
X134815535Y-79334926D01*
X134907416Y-79557296D01*
X135045440Y-79695561D01*
X135045440Y-80569833D01*
X133857052Y-82082327D01*
X133832206Y-82129066D01*
X132815843Y-85288630D01*
X132743215Y-85112856D01*
X132573230Y-84942574D01*
X132351021Y-84850305D01*
X132110417Y-84850095D01*
X131888047Y-84941976D01*
X131717765Y-85111961D01*
X131625496Y-85334170D01*
X131625286Y-85574774D01*
X131717167Y-85797144D01*
X131887152Y-85967426D01*
X132109361Y-86059695D01*
X132304727Y-86059866D01*
X132503736Y-86258875D01*
X132502362Y-86263147D01*
X132351021Y-86200305D01*
X132110417Y-86200095D01*
X131888047Y-86291976D01*
X131717765Y-86461961D01*
X131625496Y-86684170D01*
X131625286Y-86924774D01*
X131717167Y-87147144D01*
X131887152Y-87317426D01*
X132109361Y-87409695D01*
X132133535Y-87409716D01*
X131532206Y-89279066D01*
X131525000Y-89325000D01*
X131525000Y-93369764D01*
X131387574Y-93506950D01*
X131295305Y-93729159D01*
X131295095Y-93969763D01*
X131386976Y-94192133D01*
X131525000Y-94330398D01*
X131525000Y-101125000D01*
X131523764Y-101582380D01*
X131490806Y-101582351D01*
X131268436Y-101674232D01*
X131098154Y-101844217D01*
X131005885Y-102066426D01*
X131005675Y-102307030D01*
X131097556Y-102529400D01*
X131235580Y-102667665D01*
X131235580Y-102759136D01*
X131264125Y-102902643D01*
X131345415Y-103024301D01*
X131519397Y-103198283D01*
X131514906Y-104859924D01*
X131367816Y-104859796D01*
X131145446Y-104951677D01*
X131016252Y-105080646D01*
X130133153Y-105080646D01*
X129995967Y-104943220D01*
X129773758Y-104850951D01*
X129533154Y-104850741D01*
X129310784Y-104942622D01*
X129140502Y-105112607D01*
X129048233Y-105334816D01*
X129048023Y-105575420D01*
X129139904Y-105797790D01*
X129309889Y-105968072D01*
X129532098Y-106060341D01*
X129772702Y-106060551D01*
X129995072Y-105968670D01*
X130133337Y-105830646D01*
X130998325Y-105830646D01*
X131144551Y-105977127D01*
X131366760Y-106069396D01*
X131385993Y-106069413D01*
X130254774Y-107200632D01*
X130060594Y-107200463D01*
X129838224Y-107292344D01*
X129667942Y-107462329D01*
X129575673Y-107684538D01*
X129575463Y-107925142D01*
X129667344Y-108147512D01*
X129837329Y-108317794D01*
X130059538Y-108410063D01*
X130300142Y-108410273D01*
X130522512Y-108318392D01*
X130692794Y-108148407D01*
X130785063Y-107926198D01*
X130785234Y-107730832D01*
X131479192Y-107036874D01*
X131479192Y-107865478D01*
X130184067Y-109160603D01*
X130170830Y-109155107D01*
X129930226Y-109154897D01*
X129707856Y-109246778D01*
X129537574Y-109416763D01*
X129445305Y-109638972D01*
X129445095Y-109879576D01*
X129536976Y-110101946D01*
X129706961Y-110272228D01*
X129795729Y-110309088D01*
X129793213Y-110315148D01*
X129793003Y-110555752D01*
X129884884Y-110778122D01*
X130054869Y-110948404D01*
X130277078Y-111040673D01*
X130517682Y-111040883D01*
X130740052Y-110949002D01*
X130910334Y-110779017D01*
X131002603Y-110556808D01*
X131002774Y-110361442D01*
X131435563Y-109928653D01*
X131500780Y-110086490D01*
X131500678Y-110124225D01*
X131415495Y-110329368D01*
X131415285Y-110569972D01*
X131500000Y-110774999D01*
X131500000Y-119575000D01*
X124650291Y-119575000D01*
X124653907Y-113069774D01*
X125340293Y-113069774D01*
X125432174Y-113292144D01*
X125602159Y-113462426D01*
X125824368Y-113554695D01*
X126064972Y-113554905D01*
X126197853Y-113500000D01*
X128285966Y-113500000D01*
X128381765Y-113539779D01*
X128622369Y-113539989D01*
X128844739Y-113448108D01*
X129015021Y-113278123D01*
X129107290Y-113055914D01*
X129107500Y-112815310D01*
X129015619Y-112592940D01*
X128845634Y-112422658D01*
X128623425Y-112330389D01*
X128382821Y-112330179D01*
X128213841Y-112400000D01*
X126197749Y-112400000D01*
X126066028Y-112345305D01*
X125825424Y-112345095D01*
X125603054Y-112436976D01*
X125432772Y-112606961D01*
X125340503Y-112829170D01*
X125340293Y-113069774D01*
X124653907Y-113069774D01*
X124656209Y-108930150D01*
X124659835Y-108935577D01*
X124768800Y-109044542D01*
X124768631Y-109238722D01*
X124860512Y-109461092D01*
X125030497Y-109631374D01*
X125252706Y-109723643D01*
X125493310Y-109723853D01*
X125715680Y-109631972D01*
X125885962Y-109461987D01*
X125978231Y-109239778D01*
X125978441Y-108999174D01*
X125886560Y-108776804D01*
X125716575Y-108606522D01*
X125494366Y-108514253D01*
X125300000Y-108514083D01*
X125300000Y-108505225D01*
X125437426Y-108368039D01*
X125529695Y-108145830D01*
X125529905Y-107905226D01*
X125438024Y-107682856D01*
X125268039Y-107512574D01*
X125045830Y-107420305D01*
X124805226Y-107420095D01*
X124657014Y-107481335D01*
X124657467Y-106664964D01*
X125979381Y-106664964D01*
X126071262Y-106887334D01*
X126241247Y-107057616D01*
X126463456Y-107149885D01*
X126619744Y-107150021D01*
X126487574Y-107281961D01*
X126395305Y-107504170D01*
X126395095Y-107744774D01*
X126486976Y-107967144D01*
X126656961Y-108137426D01*
X126879170Y-108229695D01*
X127119774Y-108229905D01*
X127342144Y-108138024D01*
X127512426Y-107968039D01*
X127604695Y-107745830D01*
X127604905Y-107505226D01*
X127513024Y-107282856D01*
X127375000Y-107144591D01*
X127375000Y-106960904D01*
X127346455Y-106817398D01*
X127265165Y-106695739D01*
X127189022Y-106619596D01*
X127189191Y-106425416D01*
X127097310Y-106203046D01*
X126927325Y-106032764D01*
X126705116Y-105940495D01*
X126464512Y-105940285D01*
X126242142Y-106032166D01*
X126071860Y-106202151D01*
X125979591Y-106424360D01*
X125979381Y-106664964D01*
X124657467Y-106664964D01*
X124663093Y-96544774D01*
X124720095Y-96544774D01*
X124811976Y-96767144D01*
X124875000Y-96830278D01*
X124875000Y-99159190D01*
X124909254Y-99331398D01*
X124928516Y-99360225D01*
X124977319Y-99433263D01*
X124977229Y-99536098D01*
X125069110Y-99758468D01*
X125239095Y-99928750D01*
X125461304Y-100021019D01*
X125701908Y-100021229D01*
X125924278Y-99929348D01*
X126094560Y-99759363D01*
X126186829Y-99537154D01*
X126187039Y-99296550D01*
X126095158Y-99074180D01*
X125925173Y-98903898D01*
X125775000Y-98841541D01*
X125775000Y-96830356D01*
X125837426Y-96768039D01*
X125929695Y-96545830D01*
X125929870Y-96344774D01*
X128945095Y-96344774D01*
X129036976Y-96567144D01*
X129175000Y-96705409D01*
X129175000Y-96844775D01*
X129037574Y-96981961D01*
X128945305Y-97204170D01*
X128945095Y-97444774D01*
X129036976Y-97667144D01*
X129206961Y-97837426D01*
X129429170Y-97929695D01*
X129669774Y-97929905D01*
X129892144Y-97838024D01*
X130062426Y-97668039D01*
X130154695Y-97445830D01*
X130154905Y-97205226D01*
X130063024Y-96982856D01*
X129925000Y-96844591D01*
X129925000Y-96705225D01*
X130062426Y-96568039D01*
X130154695Y-96345830D01*
X130154905Y-96105226D01*
X130063024Y-95882856D01*
X129893039Y-95712574D01*
X129670830Y-95620305D01*
X129430226Y-95620095D01*
X129207856Y-95711976D01*
X129037574Y-95881961D01*
X128945305Y-96104170D01*
X128945095Y-96344774D01*
X125929870Y-96344774D01*
X125929905Y-96305226D01*
X125838024Y-96082856D01*
X125775000Y-96019722D01*
X125775000Y-93105313D01*
X125862426Y-93018039D01*
X125954695Y-92795830D01*
X125954905Y-92555226D01*
X125863024Y-92332856D01*
X125800000Y-92269722D01*
X125800000Y-90250059D01*
X125838789Y-90250093D01*
X126061159Y-90158212D01*
X126231441Y-89988227D01*
X126323710Y-89766018D01*
X126323920Y-89525414D01*
X126288842Y-89440517D01*
X126547659Y-89440517D01*
X126639540Y-89662887D01*
X126777564Y-89801152D01*
X126777564Y-90702564D01*
X126806109Y-90846071D01*
X126887399Y-90967729D01*
X128045264Y-92125594D01*
X128045095Y-92319774D01*
X128136976Y-92542144D01*
X128306961Y-92712426D01*
X128529170Y-92804695D01*
X128769774Y-92804905D01*
X128992144Y-92713024D01*
X129162426Y-92543039D01*
X129254695Y-92320830D01*
X129254905Y-92080226D01*
X129163024Y-91857856D01*
X128993039Y-91687574D01*
X128770830Y-91595305D01*
X128575464Y-91595134D01*
X127527564Y-90547234D01*
X127527564Y-89800968D01*
X127664990Y-89663782D01*
X127757259Y-89441573D01*
X127757469Y-89200969D01*
X127665588Y-88978599D01*
X127495603Y-88808317D01*
X127273394Y-88716048D01*
X127032790Y-88715838D01*
X126810420Y-88807719D01*
X126640138Y-88977704D01*
X126547869Y-89199913D01*
X126547659Y-89440517D01*
X126288842Y-89440517D01*
X126232039Y-89303044D01*
X126062054Y-89132762D01*
X125839845Y-89040493D01*
X125599241Y-89040283D01*
X125376871Y-89132164D01*
X125206589Y-89302149D01*
X125114320Y-89524358D01*
X125114242Y-89613565D01*
X125031802Y-89696005D01*
X124934254Y-89841995D01*
X124900000Y-90014203D01*
X124900000Y-92269644D01*
X124837574Y-92331961D01*
X124745305Y-92554170D01*
X124745095Y-92794774D01*
X124836976Y-93017144D01*
X124875000Y-93055234D01*
X124875000Y-96019644D01*
X124812574Y-96081961D01*
X124720305Y-96304170D01*
X124720095Y-96544774D01*
X124663093Y-96544774D01*
X124668275Y-87221424D01*
X126360426Y-87221424D01*
X126452307Y-87443794D01*
X126622292Y-87614076D01*
X126844501Y-87706345D01*
X127085105Y-87706555D01*
X127307475Y-87614674D01*
X127370611Y-87551648D01*
X127873771Y-87551648D01*
X127936088Y-87614074D01*
X128158297Y-87706343D01*
X128398901Y-87706553D01*
X128621271Y-87614672D01*
X128791553Y-87444687D01*
X128883822Y-87222478D01*
X128884032Y-86981874D01*
X128792151Y-86759504D01*
X128622166Y-86589222D01*
X128399957Y-86496953D01*
X128159353Y-86496743D01*
X127936983Y-86588624D01*
X127873849Y-86651648D01*
X127370685Y-86651648D01*
X127308370Y-86589224D01*
X127086161Y-86496955D01*
X126845557Y-86496745D01*
X126623187Y-86588626D01*
X126452905Y-86758611D01*
X126360636Y-86980820D01*
X126360426Y-87221424D01*
X124668275Y-87221424D01*
X124669639Y-84767061D01*
X128364050Y-84767061D01*
X128455931Y-84989431D01*
X128625916Y-85159713D01*
X128848125Y-85251982D01*
X129088729Y-85252192D01*
X129311099Y-85160311D01*
X129374233Y-85097287D01*
X130682909Y-85097287D01*
X130855117Y-85063033D01*
X131001107Y-84965485D01*
X131175714Y-84790878D01*
X131263920Y-84790955D01*
X131486290Y-84699074D01*
X131656572Y-84529089D01*
X131748841Y-84306880D01*
X131749051Y-84066276D01*
X131657170Y-83843906D01*
X131487185Y-83673624D01*
X131264976Y-83581355D01*
X131024372Y-83581145D01*
X130802002Y-83673026D01*
X130631720Y-83843011D01*
X130539451Y-84065220D01*
X130539373Y-84154427D01*
X130496513Y-84197287D01*
X129374311Y-84197287D01*
X129311994Y-84134861D01*
X129089785Y-84042592D01*
X128849181Y-84042382D01*
X128626811Y-84134263D01*
X128456529Y-84304248D01*
X128364260Y-84526457D01*
X128364050Y-84767061D01*
X124669639Y-84767061D01*
X124670802Y-82675000D01*
X126425000Y-82675000D01*
X126425000Y-82975000D01*
X126435258Y-83029519D01*
X126467479Y-83079591D01*
X126516642Y-83113182D01*
X126575000Y-83125000D01*
X127425000Y-83125000D01*
X127425000Y-83975000D01*
X127435258Y-84029519D01*
X127467479Y-84079591D01*
X127516642Y-84113182D01*
X127575000Y-84125000D01*
X127875000Y-84125000D01*
X127929519Y-84114742D01*
X127979591Y-84082521D01*
X128013182Y-84033358D01*
X128025000Y-83975000D01*
X128025000Y-83125000D01*
X128875000Y-83125000D01*
X128929519Y-83114742D01*
X128979591Y-83082521D01*
X129013182Y-83033358D01*
X129025000Y-82975000D01*
X129025000Y-82675000D01*
X129014742Y-82620481D01*
X128982521Y-82570409D01*
X128933358Y-82536818D01*
X128875000Y-82525000D01*
X128025000Y-82525000D01*
X128025000Y-81675000D01*
X128014742Y-81620481D01*
X127982521Y-81570409D01*
X127933358Y-81536818D01*
X127875000Y-81525000D01*
X127575000Y-81525000D01*
X127520481Y-81535258D01*
X127470409Y-81567479D01*
X127436818Y-81616642D01*
X127425000Y-81675000D01*
X127425000Y-82525000D01*
X126575000Y-82525000D01*
X126520481Y-82535258D01*
X126470409Y-82567479D01*
X126436818Y-82616642D01*
X126425000Y-82675000D01*
X124670802Y-82675000D01*
X124674101Y-76740000D01*
X125559123Y-76740000D01*
X125559123Y-80740000D01*
X125580042Y-80851173D01*
X125645745Y-80953279D01*
X125745997Y-81021778D01*
X125865000Y-81045877D01*
X129865000Y-81045877D01*
X129976173Y-81024958D01*
X130078279Y-80959255D01*
X130146778Y-80859003D01*
X130170877Y-80740000D01*
X130170877Y-79204449D01*
X130392144Y-79113024D01*
X130562426Y-78943039D01*
X130654695Y-78720830D01*
X130654905Y-78480226D01*
X130600000Y-78347345D01*
X130600000Y-77150000D01*
X130558134Y-76939524D01*
X130482855Y-76826861D01*
X130413024Y-76657856D01*
X130243039Y-76487574D01*
X130110256Y-76432438D01*
X129913909Y-76236091D01*
X129735476Y-76116866D01*
X129577883Y-76085519D01*
X129420830Y-76020305D01*
X129180226Y-76020095D01*
X129047345Y-76075000D01*
X128852551Y-76075000D01*
X128720830Y-76020305D01*
X128480226Y-76020095D01*
X128347345Y-76075000D01*
X128152551Y-76075000D01*
X128020830Y-76020305D01*
X127780226Y-76020095D01*
X127647345Y-76075000D01*
X127452551Y-76075000D01*
X127320830Y-76020305D01*
X127080226Y-76020095D01*
X126947345Y-76075000D01*
X126752551Y-76075000D01*
X126620830Y-76020305D01*
X126380226Y-76020095D01*
X126157856Y-76111976D01*
X125987574Y-76281961D01*
X125924391Y-76434123D01*
X125865000Y-76434123D01*
X125753827Y-76455042D01*
X125651721Y-76520745D01*
X125583222Y-76620997D01*
X125559123Y-76740000D01*
X124674101Y-76740000D01*
X124674916Y-75275307D01*
X136546447Y-75299534D01*
X136546447Y-75299534D01*
G37*
X136546447Y-75299534D02*
X136519865Y-75363549D01*
X136519655Y-75604153D01*
X136611536Y-75826523D01*
X136615335Y-75830329D01*
X136586926Y-77833157D01*
X136357182Y-78062901D01*
X136275892Y-78184559D01*
X136260285Y-78263024D01*
X136247347Y-78328066D01*
X136247347Y-78642017D01*
X135865165Y-78259835D01*
X135743507Y-78178545D01*
X135600000Y-78150000D01*
X134175000Y-78150000D01*
X134031493Y-78178545D01*
X133909835Y-78259835D01*
X133309835Y-78859835D01*
X133228545Y-78981493D01*
X133228545Y-78981494D01*
X133200000Y-79125000D01*
X133200000Y-79831512D01*
X132907952Y-79831512D01*
X132845635Y-79769086D01*
X132623426Y-79676817D01*
X132382822Y-79676607D01*
X132160452Y-79768488D01*
X131990170Y-79938473D01*
X131897901Y-80160682D01*
X131897691Y-80401286D01*
X131989572Y-80623656D01*
X132159557Y-80793938D01*
X132381766Y-80886207D01*
X132622370Y-80886417D01*
X132844740Y-80794536D01*
X132907874Y-80731512D01*
X133907190Y-80731512D01*
X133992757Y-80817229D01*
X134214966Y-80909498D01*
X134455570Y-80909708D01*
X134677940Y-80817827D01*
X134848222Y-80647842D01*
X134940491Y-80425633D01*
X134940701Y-80185029D01*
X134848820Y-79962659D01*
X134678835Y-79792377D01*
X134456626Y-79700108D01*
X134216022Y-79699898D01*
X133993652Y-79791779D01*
X133953850Y-79831512D01*
X133950000Y-79831512D01*
X133950000Y-79280330D01*
X134330330Y-78900000D01*
X134896434Y-78900000D01*
X134815745Y-79094322D01*
X134815535Y-79334926D01*
X134907416Y-79557296D01*
X135045440Y-79695561D01*
X135045440Y-80569833D01*
X133857052Y-82082327D01*
X133832206Y-82129066D01*
X132815843Y-85288630D01*
X132743215Y-85112856D01*
X132573230Y-84942574D01*
X132351021Y-84850305D01*
X132110417Y-84850095D01*
X131888047Y-84941976D01*
X131717765Y-85111961D01*
X131625496Y-85334170D01*
X131625286Y-85574774D01*
X131717167Y-85797144D01*
X131887152Y-85967426D01*
X132109361Y-86059695D01*
X132304727Y-86059866D01*
X132503736Y-86258875D01*
X132502362Y-86263147D01*
X132351021Y-86200305D01*
X132110417Y-86200095D01*
X131888047Y-86291976D01*
X131717765Y-86461961D01*
X131625496Y-86684170D01*
X131625286Y-86924774D01*
X131717167Y-87147144D01*
X131887152Y-87317426D01*
X132109361Y-87409695D01*
X132133535Y-87409716D01*
X131532206Y-89279066D01*
X131525000Y-89325000D01*
X131525000Y-93369764D01*
X131387574Y-93506950D01*
X131295305Y-93729159D01*
X131295095Y-93969763D01*
X131386976Y-94192133D01*
X131525000Y-94330398D01*
X131525000Y-101125000D01*
X131523764Y-101582380D01*
X131490806Y-101582351D01*
X131268436Y-101674232D01*
X131098154Y-101844217D01*
X131005885Y-102066426D01*
X131005675Y-102307030D01*
X131097556Y-102529400D01*
X131235580Y-102667665D01*
X131235580Y-102759136D01*
X131264125Y-102902643D01*
X131345415Y-103024301D01*
X131519397Y-103198283D01*
X131514906Y-104859924D01*
X131367816Y-104859796D01*
X131145446Y-104951677D01*
X131016252Y-105080646D01*
X130133153Y-105080646D01*
X129995967Y-104943220D01*
X129773758Y-104850951D01*
X129533154Y-104850741D01*
X129310784Y-104942622D01*
X129140502Y-105112607D01*
X129048233Y-105334816D01*
X129048023Y-105575420D01*
X129139904Y-105797790D01*
X129309889Y-105968072D01*
X129532098Y-106060341D01*
X129772702Y-106060551D01*
X129995072Y-105968670D01*
X130133337Y-105830646D01*
X130998325Y-105830646D01*
X131144551Y-105977127D01*
X131366760Y-106069396D01*
X131385993Y-106069413D01*
X130254774Y-107200632D01*
X130060594Y-107200463D01*
X129838224Y-107292344D01*
X129667942Y-107462329D01*
X129575673Y-107684538D01*
X129575463Y-107925142D01*
X129667344Y-108147512D01*
X129837329Y-108317794D01*
X130059538Y-108410063D01*
X130300142Y-108410273D01*
X130522512Y-108318392D01*
X130692794Y-108148407D01*
X130785063Y-107926198D01*
X130785234Y-107730832D01*
X131479192Y-107036874D01*
X131479192Y-107865478D01*
X130184067Y-109160603D01*
X130170830Y-109155107D01*
X129930226Y-109154897D01*
X129707856Y-109246778D01*
X129537574Y-109416763D01*
X129445305Y-109638972D01*
X129445095Y-109879576D01*
X129536976Y-110101946D01*
X129706961Y-110272228D01*
X129795729Y-110309088D01*
X129793213Y-110315148D01*
X129793003Y-110555752D01*
X129884884Y-110778122D01*
X130054869Y-110948404D01*
X130277078Y-111040673D01*
X130517682Y-111040883D01*
X130740052Y-110949002D01*
X130910334Y-110779017D01*
X131002603Y-110556808D01*
X131002774Y-110361442D01*
X131435563Y-109928653D01*
X131500780Y-110086490D01*
X131500678Y-110124225D01*
X131415495Y-110329368D01*
X131415285Y-110569972D01*
X131500000Y-110774999D01*
X131500000Y-119575000D01*
X124650291Y-119575000D01*
X124653907Y-113069774D01*
X125340293Y-113069774D01*
X125432174Y-113292144D01*
X125602159Y-113462426D01*
X125824368Y-113554695D01*
X126064972Y-113554905D01*
X126197853Y-113500000D01*
X128285966Y-113500000D01*
X128381765Y-113539779D01*
X128622369Y-113539989D01*
X128844739Y-113448108D01*
X129015021Y-113278123D01*
X129107290Y-113055914D01*
X129107500Y-112815310D01*
X129015619Y-112592940D01*
X128845634Y-112422658D01*
X128623425Y-112330389D01*
X128382821Y-112330179D01*
X128213841Y-112400000D01*
X126197749Y-112400000D01*
X126066028Y-112345305D01*
X125825424Y-112345095D01*
X125603054Y-112436976D01*
X125432772Y-112606961D01*
X125340503Y-112829170D01*
X125340293Y-113069774D01*
X124653907Y-113069774D01*
X124656209Y-108930150D01*
X124659835Y-108935577D01*
X124768800Y-109044542D01*
X124768631Y-109238722D01*
X124860512Y-109461092D01*
X125030497Y-109631374D01*
X125252706Y-109723643D01*
X125493310Y-109723853D01*
X125715680Y-109631972D01*
X125885962Y-109461987D01*
X125978231Y-109239778D01*
X125978441Y-108999174D01*
X125886560Y-108776804D01*
X125716575Y-108606522D01*
X125494366Y-108514253D01*
X125300000Y-108514083D01*
X125300000Y-108505225D01*
X125437426Y-108368039D01*
X125529695Y-108145830D01*
X125529905Y-107905226D01*
X125438024Y-107682856D01*
X125268039Y-107512574D01*
X125045830Y-107420305D01*
X124805226Y-107420095D01*
X124657014Y-107481335D01*
X124657467Y-106664964D01*
X125979381Y-106664964D01*
X126071262Y-106887334D01*
X126241247Y-107057616D01*
X126463456Y-107149885D01*
X126619744Y-107150021D01*
X126487574Y-107281961D01*
X126395305Y-107504170D01*
X126395095Y-107744774D01*
X126486976Y-107967144D01*
X126656961Y-108137426D01*
X126879170Y-108229695D01*
X127119774Y-108229905D01*
X127342144Y-108138024D01*
X127512426Y-107968039D01*
X127604695Y-107745830D01*
X127604905Y-107505226D01*
X127513024Y-107282856D01*
X127375000Y-107144591D01*
X127375000Y-106960904D01*
X127346455Y-106817398D01*
X127265165Y-106695739D01*
X127189022Y-106619596D01*
X127189191Y-106425416D01*
X127097310Y-106203046D01*
X126927325Y-106032764D01*
X126705116Y-105940495D01*
X126464512Y-105940285D01*
X126242142Y-106032166D01*
X126071860Y-106202151D01*
X125979591Y-106424360D01*
X125979381Y-106664964D01*
X124657467Y-106664964D01*
X124663093Y-96544774D01*
X124720095Y-96544774D01*
X124811976Y-96767144D01*
X124875000Y-96830278D01*
X124875000Y-99159190D01*
X124909254Y-99331398D01*
X124928516Y-99360225D01*
X124977319Y-99433263D01*
X124977229Y-99536098D01*
X125069110Y-99758468D01*
X125239095Y-99928750D01*
X125461304Y-100021019D01*
X125701908Y-100021229D01*
X125924278Y-99929348D01*
X126094560Y-99759363D01*
X126186829Y-99537154D01*
X126187039Y-99296550D01*
X126095158Y-99074180D01*
X125925173Y-98903898D01*
X125775000Y-98841541D01*
X125775000Y-96830356D01*
X125837426Y-96768039D01*
X125929695Y-96545830D01*
X125929870Y-96344774D01*
X128945095Y-96344774D01*
X129036976Y-96567144D01*
X129175000Y-96705409D01*
X129175000Y-96844775D01*
X129037574Y-96981961D01*
X128945305Y-97204170D01*
X128945095Y-97444774D01*
X129036976Y-97667144D01*
X129206961Y-97837426D01*
X129429170Y-97929695D01*
X129669774Y-97929905D01*
X129892144Y-97838024D01*
X130062426Y-97668039D01*
X130154695Y-97445830D01*
X130154905Y-97205226D01*
X130063024Y-96982856D01*
X129925000Y-96844591D01*
X129925000Y-96705225D01*
X130062426Y-96568039D01*
X130154695Y-96345830D01*
X130154905Y-96105226D01*
X130063024Y-95882856D01*
X129893039Y-95712574D01*
X129670830Y-95620305D01*
X129430226Y-95620095D01*
X129207856Y-95711976D01*
X129037574Y-95881961D01*
X128945305Y-96104170D01*
X128945095Y-96344774D01*
X125929870Y-96344774D01*
X125929905Y-96305226D01*
X125838024Y-96082856D01*
X125775000Y-96019722D01*
X125775000Y-93105313D01*
X125862426Y-93018039D01*
X125954695Y-92795830D01*
X125954905Y-92555226D01*
X125863024Y-92332856D01*
X125800000Y-92269722D01*
X125800000Y-90250059D01*
X125838789Y-90250093D01*
X126061159Y-90158212D01*
X126231441Y-89988227D01*
X126323710Y-89766018D01*
X126323920Y-89525414D01*
X126288842Y-89440517D01*
X126547659Y-89440517D01*
X126639540Y-89662887D01*
X126777564Y-89801152D01*
X126777564Y-90702564D01*
X126806109Y-90846071D01*
X126887399Y-90967729D01*
X128045264Y-92125594D01*
X128045095Y-92319774D01*
X128136976Y-92542144D01*
X128306961Y-92712426D01*
X128529170Y-92804695D01*
X128769774Y-92804905D01*
X128992144Y-92713024D01*
X129162426Y-92543039D01*
X129254695Y-92320830D01*
X129254905Y-92080226D01*
X129163024Y-91857856D01*
X128993039Y-91687574D01*
X128770830Y-91595305D01*
X128575464Y-91595134D01*
X127527564Y-90547234D01*
X127527564Y-89800968D01*
X127664990Y-89663782D01*
X127757259Y-89441573D01*
X127757469Y-89200969D01*
X127665588Y-88978599D01*
X127495603Y-88808317D01*
X127273394Y-88716048D01*
X127032790Y-88715838D01*
X126810420Y-88807719D01*
X126640138Y-88977704D01*
X126547869Y-89199913D01*
X126547659Y-89440517D01*
X126288842Y-89440517D01*
X126232039Y-89303044D01*
X126062054Y-89132762D01*
X125839845Y-89040493D01*
X125599241Y-89040283D01*
X125376871Y-89132164D01*
X125206589Y-89302149D01*
X125114320Y-89524358D01*
X125114242Y-89613565D01*
X125031802Y-89696005D01*
X124934254Y-89841995D01*
X124900000Y-90014203D01*
X124900000Y-92269644D01*
X124837574Y-92331961D01*
X124745305Y-92554170D01*
X124745095Y-92794774D01*
X124836976Y-93017144D01*
X124875000Y-93055234D01*
X124875000Y-96019644D01*
X124812574Y-96081961D01*
X124720305Y-96304170D01*
X124720095Y-96544774D01*
X124663093Y-96544774D01*
X124668275Y-87221424D01*
X126360426Y-87221424D01*
X126452307Y-87443794D01*
X126622292Y-87614076D01*
X126844501Y-87706345D01*
X127085105Y-87706555D01*
X127307475Y-87614674D01*
X127370611Y-87551648D01*
X127873771Y-87551648D01*
X127936088Y-87614074D01*
X128158297Y-87706343D01*
X128398901Y-87706553D01*
X128621271Y-87614672D01*
X128791553Y-87444687D01*
X128883822Y-87222478D01*
X128884032Y-86981874D01*
X128792151Y-86759504D01*
X128622166Y-86589222D01*
X128399957Y-86496953D01*
X128159353Y-86496743D01*
X127936983Y-86588624D01*
X127873849Y-86651648D01*
X127370685Y-86651648D01*
X127308370Y-86589224D01*
X127086161Y-86496955D01*
X126845557Y-86496745D01*
X126623187Y-86588626D01*
X126452905Y-86758611D01*
X126360636Y-86980820D01*
X126360426Y-87221424D01*
X124668275Y-87221424D01*
X124669639Y-84767061D01*
X128364050Y-84767061D01*
X128455931Y-84989431D01*
X128625916Y-85159713D01*
X128848125Y-85251982D01*
X129088729Y-85252192D01*
X129311099Y-85160311D01*
X129374233Y-85097287D01*
X130682909Y-85097287D01*
X130855117Y-85063033D01*
X131001107Y-84965485D01*
X131175714Y-84790878D01*
X131263920Y-84790955D01*
X131486290Y-84699074D01*
X131656572Y-84529089D01*
X131748841Y-84306880D01*
X131749051Y-84066276D01*
X131657170Y-83843906D01*
X131487185Y-83673624D01*
X131264976Y-83581355D01*
X131024372Y-83581145D01*
X130802002Y-83673026D01*
X130631720Y-83843011D01*
X130539451Y-84065220D01*
X130539373Y-84154427D01*
X130496513Y-84197287D01*
X129374311Y-84197287D01*
X129311994Y-84134861D01*
X129089785Y-84042592D01*
X128849181Y-84042382D01*
X128626811Y-84134263D01*
X128456529Y-84304248D01*
X128364260Y-84526457D01*
X128364050Y-84767061D01*
X124669639Y-84767061D01*
X124670802Y-82675000D01*
X126425000Y-82675000D01*
X126425000Y-82975000D01*
X126435258Y-83029519D01*
X126467479Y-83079591D01*
X126516642Y-83113182D01*
X126575000Y-83125000D01*
X127425000Y-83125000D01*
X127425000Y-83975000D01*
X127435258Y-84029519D01*
X127467479Y-84079591D01*
X127516642Y-84113182D01*
X127575000Y-84125000D01*
X127875000Y-84125000D01*
X127929519Y-84114742D01*
X127979591Y-84082521D01*
X128013182Y-84033358D01*
X128025000Y-83975000D01*
X128025000Y-83125000D01*
X128875000Y-83125000D01*
X128929519Y-83114742D01*
X128979591Y-83082521D01*
X129013182Y-83033358D01*
X129025000Y-82975000D01*
X129025000Y-82675000D01*
X129014742Y-82620481D01*
X128982521Y-82570409D01*
X128933358Y-82536818D01*
X128875000Y-82525000D01*
X128025000Y-82525000D01*
X128025000Y-81675000D01*
X128014742Y-81620481D01*
X127982521Y-81570409D01*
X127933358Y-81536818D01*
X127875000Y-81525000D01*
X127575000Y-81525000D01*
X127520481Y-81535258D01*
X127470409Y-81567479D01*
X127436818Y-81616642D01*
X127425000Y-81675000D01*
X127425000Y-82525000D01*
X126575000Y-82525000D01*
X126520481Y-82535258D01*
X126470409Y-82567479D01*
X126436818Y-82616642D01*
X126425000Y-82675000D01*
X124670802Y-82675000D01*
X124674101Y-76740000D01*
X125559123Y-76740000D01*
X125559123Y-80740000D01*
X125580042Y-80851173D01*
X125645745Y-80953279D01*
X125745997Y-81021778D01*
X125865000Y-81045877D01*
X129865000Y-81045877D01*
X129976173Y-81024958D01*
X130078279Y-80959255D01*
X130146778Y-80859003D01*
X130170877Y-80740000D01*
X130170877Y-79204449D01*
X130392144Y-79113024D01*
X130562426Y-78943039D01*
X130654695Y-78720830D01*
X130654905Y-78480226D01*
X130600000Y-78347345D01*
X130600000Y-77150000D01*
X130558134Y-76939524D01*
X130482855Y-76826861D01*
X130413024Y-76657856D01*
X130243039Y-76487574D01*
X130110256Y-76432438D01*
X129913909Y-76236091D01*
X129735476Y-76116866D01*
X129577883Y-76085519D01*
X129420830Y-76020305D01*
X129180226Y-76020095D01*
X129047345Y-76075000D01*
X128852551Y-76075000D01*
X128720830Y-76020305D01*
X128480226Y-76020095D01*
X128347345Y-76075000D01*
X128152551Y-76075000D01*
X128020830Y-76020305D01*
X127780226Y-76020095D01*
X127647345Y-76075000D01*
X127452551Y-76075000D01*
X127320830Y-76020305D01*
X127080226Y-76020095D01*
X126947345Y-76075000D01*
X126752551Y-76075000D01*
X126620830Y-76020305D01*
X126380226Y-76020095D01*
X126157856Y-76111976D01*
X125987574Y-76281961D01*
X125924391Y-76434123D01*
X125865000Y-76434123D01*
X125753827Y-76455042D01*
X125651721Y-76520745D01*
X125583222Y-76620997D01*
X125559123Y-76740000D01*
X124674101Y-76740000D01*
X124674916Y-75275307D01*
X136546447Y-75299534D01*
G36*
X151000000Y-75670550D02*
X150986169Y-75660909D01*
X150697078Y-75950000D01*
X150986169Y-76239091D01*
X151000000Y-76229450D01*
X151000000Y-79720550D01*
X150986169Y-79710909D01*
X150697078Y-80000000D01*
X150986169Y-80289091D01*
X151000000Y-80279450D01*
X151000000Y-85006340D01*
X148902978Y-85011518D01*
X148849177Y-85021641D01*
X148799025Y-85053737D01*
X148765311Y-85102816D01*
X148753348Y-85161145D01*
X148743348Y-89181145D01*
X148753741Y-89236381D01*
X148786085Y-89286373D01*
X148835330Y-89319843D01*
X148893717Y-89331518D01*
X151000000Y-89326330D01*
X151000000Y-108495550D01*
X150986169Y-108485909D01*
X150697078Y-108775000D01*
X150986169Y-109064091D01*
X151000000Y-109054450D01*
X151000000Y-112545550D01*
X150986169Y-112535909D01*
X150697078Y-112825000D01*
X150986169Y-113114091D01*
X151000000Y-113104450D01*
X151000000Y-119575000D01*
X131950000Y-119575000D01*
X131950000Y-117706645D01*
X132036976Y-117917144D01*
X132206961Y-118087426D01*
X132429170Y-118179695D01*
X132669774Y-118179905D01*
X132892144Y-118088024D01*
X133062426Y-117918039D01*
X133154695Y-117695830D01*
X133154905Y-117455226D01*
X133063024Y-117232856D01*
X132925000Y-117094591D01*
X132925000Y-113261169D01*
X150260909Y-113261169D01*
X150310240Y-113331936D01*
X150522486Y-113385101D01*
X150738923Y-113352995D01*
X150789760Y-113331936D01*
X150839091Y-113261169D01*
X150550000Y-112972078D01*
X150260909Y-113261169D01*
X132925000Y-113261169D01*
X132925000Y-112797486D01*
X149989899Y-112797486D01*
X150022005Y-113013923D01*
X150043064Y-113064760D01*
X150113831Y-113114091D01*
X150402922Y-112825000D01*
X150113831Y-112535909D01*
X150043064Y-112585240D01*
X149989899Y-112797486D01*
X132925000Y-112797486D01*
X132925000Y-112388831D01*
X150260909Y-112388831D01*
X150550000Y-112677922D01*
X150839091Y-112388831D01*
X150789760Y-112318064D01*
X150577514Y-112264899D01*
X150361077Y-112297005D01*
X150310240Y-112318064D01*
X150260909Y-112388831D01*
X132925000Y-112388831D01*
X132925000Y-109211169D01*
X150260909Y-109211169D01*
X150310240Y-109281936D01*
X150522486Y-109335101D01*
X150738923Y-109302995D01*
X150789760Y-109281936D01*
X150839091Y-109211169D01*
X150550000Y-108922078D01*
X150260909Y-109211169D01*
X132925000Y-109211169D01*
X132925000Y-108747486D01*
X149989899Y-108747486D01*
X150022005Y-108963923D01*
X150043064Y-109014760D01*
X150113831Y-109064091D01*
X150402922Y-108775000D01*
X150113831Y-108485909D01*
X150043064Y-108535240D01*
X149989899Y-108747486D01*
X132925000Y-108747486D01*
X132925000Y-108338831D01*
X150260909Y-108338831D01*
X150550000Y-108627922D01*
X150839091Y-108338831D01*
X150789760Y-108268064D01*
X150577514Y-108214899D01*
X150361077Y-108247005D01*
X150310240Y-108268064D01*
X150260909Y-108338831D01*
X132925000Y-108338831D01*
X132925000Y-107354884D01*
X134387871Y-105892013D01*
X134582051Y-105892182D01*
X134804421Y-105800301D01*
X134974703Y-105630316D01*
X135066972Y-105408107D01*
X135067182Y-105167503D01*
X134975301Y-104945133D01*
X134805316Y-104774851D01*
X134583107Y-104682582D01*
X134342503Y-104682372D01*
X134120133Y-104774253D01*
X133949851Y-104944238D01*
X133857582Y-105166447D01*
X133857411Y-105361813D01*
X133417396Y-105801828D01*
X133417396Y-102714041D01*
X133554822Y-102576855D01*
X133614301Y-102433614D01*
X136151010Y-104970323D01*
X136151012Y-104970326D01*
X136237046Y-105027812D01*
X136329445Y-105089551D01*
X136539921Y-105131418D01*
X136539926Y-105131417D01*
X136718036Y-105131417D01*
X136702593Y-105168607D01*
X136702383Y-105409211D01*
X136794264Y-105631581D01*
X136964249Y-105801863D01*
X137186458Y-105894132D01*
X137275665Y-105894210D01*
X137329452Y-105947997D01*
X137475443Y-106045546D01*
X137647650Y-106079799D01*
X138226266Y-106079799D01*
X138195305Y-106154361D01*
X138195095Y-106394965D01*
X138286976Y-106617335D01*
X138425000Y-106755600D01*
X138425000Y-107221812D01*
X138293102Y-107353480D01*
X138200833Y-107575689D01*
X138200623Y-107816293D01*
X138292504Y-108038663D01*
X138462489Y-108208945D01*
X138684698Y-108301214D01*
X138925302Y-108301424D01*
X139147672Y-108209543D01*
X139317954Y-108039558D01*
X139410223Y-107817349D01*
X139410433Y-107576745D01*
X139318552Y-107354375D01*
X139175000Y-107210572D01*
X139175000Y-106755416D01*
X139312426Y-106618230D01*
X139404695Y-106396021D01*
X139404905Y-106155417D01*
X139373660Y-106079799D01*
X140375000Y-106079799D01*
X140375000Y-107116665D01*
X140409254Y-107288873D01*
X140444277Y-107341288D01*
X140444173Y-107460517D01*
X140536054Y-107682887D01*
X140706039Y-107853169D01*
X140928248Y-107945438D01*
X141168852Y-107945648D01*
X141391222Y-107853767D01*
X141561504Y-107683782D01*
X141653773Y-107461573D01*
X141653870Y-107350320D01*
X146746758Y-107350320D01*
X146857848Y-107473144D01*
X147252389Y-107610346D01*
X147669402Y-107586121D01*
X147942152Y-107473144D01*
X148053242Y-107350320D01*
X149146758Y-107350320D01*
X149257848Y-107473144D01*
X149652389Y-107610346D01*
X150069402Y-107586121D01*
X150342152Y-107473144D01*
X150453242Y-107350320D01*
X149800000Y-106697078D01*
X149146758Y-107350320D01*
X148053242Y-107350320D01*
X147400000Y-106697078D01*
X146746758Y-107350320D01*
X141653870Y-107350320D01*
X141653983Y-107220969D01*
X141562102Y-106998599D01*
X141392117Y-106828317D01*
X141275000Y-106779686D01*
X141275000Y-106402389D01*
X146339654Y-106402389D01*
X146363879Y-106819402D01*
X146476856Y-107092152D01*
X146599680Y-107203242D01*
X147252922Y-106550000D01*
X147547078Y-106550000D01*
X148200320Y-107203242D01*
X148323144Y-107092152D01*
X148460346Y-106697611D01*
X148443197Y-106402389D01*
X148739654Y-106402389D01*
X148763879Y-106819402D01*
X148876856Y-107092152D01*
X148999680Y-107203242D01*
X149652922Y-106550000D01*
X149947078Y-106550000D01*
X150600320Y-107203242D01*
X150723144Y-107092152D01*
X150860346Y-106697611D01*
X150836121Y-106280598D01*
X150723144Y-106007848D01*
X150600320Y-105896758D01*
X149947078Y-106550000D01*
X149652922Y-106550000D01*
X148999680Y-105896758D01*
X148876856Y-106007848D01*
X148739654Y-106402389D01*
X148443197Y-106402389D01*
X148436121Y-106280598D01*
X148323144Y-106007848D01*
X148200320Y-105896758D01*
X147547078Y-106550000D01*
X147252922Y-106550000D01*
X146599680Y-105896758D01*
X146476856Y-106007848D01*
X146339654Y-106402389D01*
X141275000Y-106402389D01*
X141275000Y-105749680D01*
X146746758Y-105749680D01*
X147400000Y-106402922D01*
X148053242Y-105749680D01*
X149146758Y-105749680D01*
X149800000Y-106402922D01*
X150453242Y-105749680D01*
X150342152Y-105626856D01*
X149947611Y-105489654D01*
X149530598Y-105513879D01*
X149257848Y-105626856D01*
X149146758Y-105749680D01*
X148053242Y-105749680D01*
X147942152Y-105626856D01*
X147547611Y-105489654D01*
X147130598Y-105513879D01*
X146857848Y-105626856D01*
X146746758Y-105749680D01*
X141275000Y-105749680D01*
X141275000Y-105730356D01*
X141337426Y-105668039D01*
X141429695Y-105445830D01*
X141429773Y-105356623D01*
X142008793Y-104777603D01*
X144785198Y-104777603D01*
X144897796Y-104800000D01*
X146920334Y-104800000D01*
X146921397Y-104802572D01*
X147146245Y-105027812D01*
X147440172Y-105149861D01*
X147758432Y-105150139D01*
X148052572Y-105028603D01*
X148221982Y-104859487D01*
X149237591Y-104859487D01*
X149299419Y-104940651D01*
X149548331Y-105010717D01*
X149805110Y-104980195D01*
X149900581Y-104940651D01*
X149962409Y-104859487D01*
X149600000Y-104497078D01*
X149237591Y-104859487D01*
X148221982Y-104859487D01*
X148277812Y-104803755D01*
X148399861Y-104509828D01*
X148400045Y-104298331D01*
X148939283Y-104298331D01*
X148969805Y-104555110D01*
X149009349Y-104650581D01*
X149090513Y-104712409D01*
X149452922Y-104350000D01*
X149747078Y-104350000D01*
X150109487Y-104712409D01*
X150190651Y-104650581D01*
X150260717Y-104401669D01*
X150230195Y-104144890D01*
X150190651Y-104049419D01*
X150109487Y-103987591D01*
X149747078Y-104350000D01*
X149452922Y-104350000D01*
X149090513Y-103987591D01*
X149009349Y-104049419D01*
X148939283Y-104298331D01*
X148400045Y-104298331D01*
X148400139Y-104191568D01*
X148278603Y-103897428D01*
X148221788Y-103840513D01*
X149237591Y-103840513D01*
X149600000Y-104202922D01*
X149962409Y-103840513D01*
X149900581Y-103759349D01*
X149651669Y-103689283D01*
X149394890Y-103719805D01*
X149299419Y-103759349D01*
X149237591Y-103840513D01*
X148221788Y-103840513D01*
X148053755Y-103672188D01*
X148049052Y-103670235D01*
X148016166Y-103504902D01*
X148019774Y-103504905D01*
X148242144Y-103413024D01*
X148412426Y-103243039D01*
X148504695Y-103020830D01*
X148504905Y-102780226D01*
X148413024Y-102557856D01*
X148389643Y-102534435D01*
X148399861Y-102509828D01*
X148400139Y-102191568D01*
X148278603Y-101897428D01*
X148053755Y-101672188D01*
X147759828Y-101550139D01*
X147441568Y-101549861D01*
X147337231Y-101592972D01*
X147455409Y-101475000D01*
X148194670Y-101475000D01*
X148832326Y-102112656D01*
X148800139Y-102190172D01*
X148799861Y-102508432D01*
X148921397Y-102802572D01*
X149146245Y-103027812D01*
X149440172Y-103149861D01*
X149758432Y-103150139D01*
X150052572Y-103028603D01*
X150277812Y-102803755D01*
X150399861Y-102509828D01*
X150400139Y-102191568D01*
X150278603Y-101897428D01*
X150053755Y-101672188D01*
X149759828Y-101550139D01*
X149441568Y-101549861D01*
X149362756Y-101582426D01*
X148615165Y-100834835D01*
X148493507Y-100753545D01*
X148350000Y-100725000D01*
X148310514Y-100725000D01*
X148399861Y-100509828D01*
X148400139Y-100191568D01*
X148278603Y-99897428D01*
X148132972Y-99751543D01*
X148471213Y-99751543D01*
X148832326Y-100112656D01*
X148800139Y-100190172D01*
X148799861Y-100508432D01*
X148921397Y-100802572D01*
X149146245Y-101027812D01*
X149440172Y-101149861D01*
X149758432Y-101150139D01*
X150052572Y-101028603D01*
X150277812Y-100803755D01*
X150399861Y-100509828D01*
X150400139Y-100191568D01*
X150278603Y-99897428D01*
X150053755Y-99672188D01*
X149759828Y-99550139D01*
X149441568Y-99549861D01*
X149362756Y-99582426D01*
X149128374Y-99348044D01*
X149140164Y-99340166D01*
X149362656Y-99117674D01*
X149440172Y-99149861D01*
X149758432Y-99150139D01*
X150052572Y-99028603D01*
X150277812Y-98803755D01*
X150399861Y-98509828D01*
X150400139Y-98191568D01*
X150278603Y-97897428D01*
X150053755Y-97672188D01*
X149759828Y-97550139D01*
X149441568Y-97549861D01*
X149147428Y-97671397D01*
X148922188Y-97896245D01*
X148800139Y-98190172D01*
X148799861Y-98508432D01*
X148832426Y-98587244D01*
X148719669Y-98700001D01*
X148320894Y-98700001D01*
X148399861Y-98509828D01*
X148400139Y-98191568D01*
X148367574Y-98112756D01*
X148590166Y-97890164D01*
X148671456Y-97768506D01*
X148700001Y-97624999D01*
X148700001Y-96508432D01*
X148799861Y-96508432D01*
X148921397Y-96802572D01*
X149146245Y-97027812D01*
X149440172Y-97149861D01*
X149758432Y-97150139D01*
X150052572Y-97028603D01*
X150277812Y-96803755D01*
X150399861Y-96509828D01*
X150400139Y-96191568D01*
X150278603Y-95897428D01*
X150053755Y-95672188D01*
X149759828Y-95550139D01*
X149441568Y-95549861D01*
X149147428Y-95671397D01*
X148922188Y-95896245D01*
X148800139Y-96190172D01*
X148799861Y-96508432D01*
X148700001Y-96508432D01*
X148700001Y-95300001D01*
X148698971Y-95294822D01*
X148729695Y-95220830D01*
X148729905Y-94980226D01*
X148717549Y-94950320D01*
X149146758Y-94950320D01*
X149257848Y-95073144D01*
X149652389Y-95210346D01*
X150069402Y-95186121D01*
X150342152Y-95073144D01*
X150453242Y-94950320D01*
X149800000Y-94297078D01*
X149146758Y-94950320D01*
X148717549Y-94950320D01*
X148638024Y-94757856D01*
X148468039Y-94587574D01*
X148245830Y-94495305D01*
X148005226Y-94495095D01*
X147782856Y-94586976D01*
X147612574Y-94756961D01*
X147520305Y-94979170D01*
X147520095Y-95219774D01*
X147611976Y-95442144D01*
X147719748Y-95550104D01*
X147441568Y-95549861D01*
X147147428Y-95671397D01*
X146922188Y-95896245D01*
X146800139Y-96190172D01*
X146799861Y-96508432D01*
X146921397Y-96802572D01*
X147146245Y-97027812D01*
X147440172Y-97149861D01*
X147758432Y-97150139D01*
X147950001Y-97070984D01*
X147950001Y-97469669D01*
X147837344Y-97582326D01*
X147759828Y-97550139D01*
X147441568Y-97549861D01*
X147147428Y-97671397D01*
X146922188Y-97896245D01*
X146800139Y-98190172D01*
X146799861Y-98508432D01*
X146825378Y-98570188D01*
X138328988Y-98570188D01*
X138089958Y-98331158D01*
X138090127Y-98136978D01*
X137998246Y-97914608D01*
X137828261Y-97744326D01*
X137606052Y-97652057D01*
X137365448Y-97651847D01*
X137143078Y-97743728D01*
X136972796Y-97913713D01*
X136930648Y-98015216D01*
X136923545Y-97998024D01*
X136753560Y-97827742D01*
X136531351Y-97735473D01*
X136290747Y-97735263D01*
X136068377Y-97827144D01*
X135898095Y-97997129D01*
X135805826Y-98219338D01*
X135805616Y-98459942D01*
X135897497Y-98682312D01*
X136035521Y-98820577D01*
X136035521Y-98969591D01*
X136064066Y-99113098D01*
X136145356Y-99234756D01*
X136323046Y-99412446D01*
X136227569Y-99451896D01*
X136057287Y-99621881D01*
X135965018Y-99844090D01*
X135964808Y-100084694D01*
X136056689Y-100307064D01*
X136226674Y-100477346D01*
X136448883Y-100569615D01*
X136644249Y-100569786D01*
X137134829Y-101060366D01*
X137256488Y-101141656D01*
X137399994Y-101170201D01*
X137401259Y-101170201D01*
X137307218Y-101264078D01*
X137244510Y-101415097D01*
X137062166Y-101414938D01*
X136839796Y-101506819D01*
X136669514Y-101676804D01*
X136577245Y-101899013D01*
X136577035Y-102139617D01*
X136668916Y-102361987D01*
X136838901Y-102532269D01*
X137061110Y-102624538D01*
X137256476Y-102624709D01*
X137508233Y-102876466D01*
X137629891Y-102957756D01*
X137773398Y-102986301D01*
X138221838Y-102986301D01*
X138359024Y-103123727D01*
X138581233Y-103215996D01*
X138821837Y-103216206D01*
X139044207Y-103124325D01*
X139214489Y-102954340D01*
X139306758Y-102732131D01*
X139306968Y-102491527D01*
X139215087Y-102269157D01*
X139045102Y-102098875D01*
X138822893Y-102006606D01*
X138582289Y-102006396D01*
X138359919Y-102098277D01*
X138221654Y-102236301D01*
X137928728Y-102236301D01*
X137904418Y-102211991D01*
X137939418Y-102212022D01*
X138161788Y-102120141D01*
X138300053Y-101982117D01*
X143840808Y-101982117D01*
X144534835Y-102676144D01*
X144656494Y-102757434D01*
X144800000Y-102785979D01*
X145070649Y-102785979D01*
X145404874Y-103120204D01*
X145280226Y-103120095D01*
X145057856Y-103211976D01*
X144919591Y-103350000D01*
X139010104Y-103350000D01*
X138866597Y-103378545D01*
X138744939Y-103459835D01*
X138622777Y-103581997D01*
X137162327Y-103581997D01*
X135504736Y-101924406D01*
X135504905Y-101730226D01*
X135413024Y-101507856D01*
X135243039Y-101337574D01*
X135020830Y-101245305D01*
X134780226Y-101245095D01*
X134557856Y-101336976D01*
X134387574Y-101506961D01*
X134345238Y-101608917D01*
X133482624Y-100746302D01*
X133536705Y-100692316D01*
X133628974Y-100470107D01*
X133629184Y-100229503D01*
X133537303Y-100007133D01*
X133367318Y-99836851D01*
X133145109Y-99744582D01*
X132949743Y-99744411D01*
X132574508Y-99369176D01*
X132574508Y-96304236D01*
X132711934Y-96167050D01*
X132804203Y-95944841D01*
X132804413Y-95704237D01*
X132712532Y-95481867D01*
X132542547Y-95311585D01*
X132320338Y-95219316D01*
X132079734Y-95219106D01*
X131975000Y-95262381D01*
X131975000Y-94862743D01*
X132025453Y-94896455D01*
X132168959Y-94925000D01*
X133332973Y-94925000D01*
X133448356Y-95040585D01*
X133670565Y-95132854D01*
X133911169Y-95133064D01*
X134133539Y-95041183D01*
X134303821Y-94871198D01*
X134396090Y-94648989D01*
X134396300Y-94408385D01*
X134304419Y-94186015D01*
X134134434Y-94015733D01*
X133912225Y-93923464D01*
X133671621Y-93923254D01*
X133449251Y-94015135D01*
X133289107Y-94175000D01*
X133192341Y-94175000D01*
X133234917Y-94132498D01*
X133327186Y-93910289D01*
X133327396Y-93669685D01*
X133235515Y-93447315D01*
X133065530Y-93277033D01*
X132850000Y-93187537D01*
X132850000Y-90955225D01*
X132987426Y-90818039D01*
X133079695Y-90595830D01*
X133079905Y-90355226D01*
X132988024Y-90132856D01*
X132818039Y-89962574D01*
X132595830Y-89870305D01*
X132460802Y-89870187D01*
X132934853Y-89396136D01*
X133141522Y-89396316D01*
X133363892Y-89304435D01*
X133414352Y-89254063D01*
X133414352Y-90123120D01*
X133419138Y-90147183D01*
X133315967Y-90250174D01*
X133223698Y-90472383D01*
X133223488Y-90712987D01*
X133315369Y-90935357D01*
X133485354Y-91105639D01*
X133707563Y-91197908D01*
X133948167Y-91198118D01*
X134170537Y-91106237D01*
X134340819Y-90936252D01*
X134409726Y-90770306D01*
X134554385Y-90914965D01*
X134554216Y-91109145D01*
X134646097Y-91331515D01*
X134816082Y-91501797D01*
X135038291Y-91594066D01*
X135278895Y-91594276D01*
X135501265Y-91502395D01*
X135671547Y-91332410D01*
X135763816Y-91110201D01*
X135764026Y-90869597D01*
X135672145Y-90647227D01*
X135502160Y-90476945D01*
X135279951Y-90384676D01*
X135084585Y-90384505D01*
X134671806Y-89971726D01*
X134738941Y-89971785D01*
X134961311Y-89879904D01*
X135131593Y-89709919D01*
X135223862Y-89487710D01*
X135224072Y-89247106D01*
X135132191Y-89024736D01*
X134994167Y-88886471D01*
X134994167Y-87843976D01*
X134965622Y-87700470D01*
X134965622Y-87700469D01*
X134884332Y-87578811D01*
X133119545Y-85814024D01*
X134018576Y-83019208D01*
X134036763Y-83037426D01*
X134258972Y-83129695D01*
X134499576Y-83129905D01*
X134721946Y-83038024D01*
X134892228Y-82868039D01*
X134984497Y-82645830D01*
X134984668Y-82450464D01*
X135685605Y-81749527D01*
X135766894Y-81627869D01*
X135766895Y-81627868D01*
X135795440Y-81484362D01*
X135795440Y-80343654D01*
X136247347Y-79768499D01*
X136247347Y-82561012D01*
X136135650Y-82607164D01*
X135965368Y-82777149D01*
X135873099Y-82999358D01*
X135872889Y-83239962D01*
X135964770Y-83462332D01*
X136027794Y-83525466D01*
X136027794Y-93329743D01*
X135641110Y-93716427D01*
X135552904Y-93716350D01*
X135330534Y-93808231D01*
X135160252Y-93978216D01*
X135067983Y-94200425D01*
X135067773Y-94441029D01*
X135159654Y-94663399D01*
X135329639Y-94833681D01*
X135551848Y-94925950D01*
X135792452Y-94926160D01*
X136014822Y-94834279D01*
X136185104Y-94664294D01*
X136277373Y-94442085D01*
X136277451Y-94352878D01*
X136795992Y-93834337D01*
X136813036Y-93808829D01*
X136893540Y-93688347D01*
X136927794Y-93516139D01*
X136927794Y-83525544D01*
X136990220Y-83463227D01*
X137082489Y-83241018D01*
X137082699Y-83000414D01*
X136997347Y-82793845D01*
X136997347Y-80942313D01*
X137088892Y-81163870D01*
X137226916Y-81302135D01*
X137226916Y-92169842D01*
X137255461Y-92313349D01*
X137336751Y-92435007D01*
X138463480Y-93561736D01*
X138463311Y-93755916D01*
X138489873Y-93820201D01*
X137479799Y-93820201D01*
X137336292Y-93848746D01*
X137266650Y-93895280D01*
X137055226Y-93895095D01*
X136832856Y-93986976D01*
X136662574Y-94156961D01*
X136570305Y-94379170D01*
X136570095Y-94619774D01*
X136661976Y-94842144D01*
X136831961Y-95012426D01*
X137054170Y-95104695D01*
X137294774Y-95104905D01*
X137343062Y-95084953D01*
X137386976Y-95191233D01*
X137556961Y-95361515D01*
X137779170Y-95453784D01*
X138019774Y-95453994D01*
X138242144Y-95362113D01*
X138392691Y-95211828D01*
X138428020Y-95204801D01*
X142189869Y-95204801D01*
X141703742Y-95690928D01*
X138459072Y-95690928D01*
X138315565Y-95719473D01*
X138193907Y-95800763D01*
X137899406Y-96095264D01*
X137705226Y-96095095D01*
X137482856Y-96186976D01*
X137312574Y-96356961D01*
X137220305Y-96579170D01*
X137220095Y-96819774D01*
X137311976Y-97042144D01*
X137481961Y-97212426D01*
X137704170Y-97304695D01*
X137944774Y-97304905D01*
X138167144Y-97213024D01*
X138337426Y-97043039D01*
X138429695Y-96820830D01*
X138429866Y-96625464D01*
X138614402Y-96440928D01*
X140063178Y-96440928D01*
X140045305Y-96483972D01*
X140045095Y-96724576D01*
X140136976Y-96946946D01*
X140306961Y-97117228D01*
X140529170Y-97209497D01*
X140769774Y-97209707D01*
X140992144Y-97117826D01*
X141130409Y-96979802D01*
X141238442Y-96979802D01*
X141366571Y-97108155D01*
X141588780Y-97200424D01*
X141829384Y-97200634D01*
X142051754Y-97108753D01*
X142222036Y-96938768D01*
X142314305Y-96716559D01*
X142314515Y-96475955D01*
X142222634Y-96253585D01*
X142212199Y-96243131D01*
X142420824Y-96034506D01*
X144097115Y-96034506D01*
X144188996Y-96256876D01*
X144358981Y-96427158D01*
X144581190Y-96519427D01*
X144821794Y-96519637D01*
X145044164Y-96427756D01*
X145214446Y-96257771D01*
X145306715Y-96035562D01*
X145306886Y-95840196D01*
X146419121Y-94727961D01*
X146500411Y-94606302D01*
X146528956Y-94462796D01*
X146528956Y-94002389D01*
X148739654Y-94002389D01*
X148763879Y-94419402D01*
X148876856Y-94692152D01*
X148999680Y-94803242D01*
X149652922Y-94150000D01*
X149947078Y-94150000D01*
X150600320Y-94803242D01*
X150723144Y-94692152D01*
X150860346Y-94297611D01*
X150836121Y-93880598D01*
X150723144Y-93607848D01*
X150600320Y-93496758D01*
X149947078Y-94150000D01*
X149652922Y-94150000D01*
X148999680Y-93496758D01*
X148876856Y-93607848D01*
X148739654Y-94002389D01*
X146528956Y-94002389D01*
X146528956Y-93349680D01*
X149146758Y-93349680D01*
X149800000Y-94002922D01*
X150453242Y-93349680D01*
X150342152Y-93226856D01*
X149947611Y-93089654D01*
X149530598Y-93113879D01*
X149257848Y-93226856D01*
X149146758Y-93349680D01*
X146528956Y-93349680D01*
X146528956Y-80436169D01*
X150260909Y-80436169D01*
X150310240Y-80506936D01*
X150522486Y-80560101D01*
X150738923Y-80527995D01*
X150789760Y-80506936D01*
X150839091Y-80436169D01*
X150550000Y-80147078D01*
X150260909Y-80436169D01*
X146528956Y-80436169D01*
X146528956Y-79972486D01*
X149989899Y-79972486D01*
X150022005Y-80188923D01*
X150043064Y-80239760D01*
X150113831Y-80289091D01*
X150402922Y-80000000D01*
X150113831Y-79710909D01*
X150043064Y-79760240D01*
X149989899Y-79972486D01*
X146528956Y-79972486D01*
X146528956Y-79563831D01*
X150260909Y-79563831D01*
X150550000Y-79852922D01*
X150839091Y-79563831D01*
X150789760Y-79493064D01*
X150577514Y-79439899D01*
X150361077Y-79472005D01*
X150310240Y-79493064D01*
X150260909Y-79563831D01*
X146528956Y-79563831D01*
X146528956Y-79551124D01*
X146666382Y-79413938D01*
X146758651Y-79191729D01*
X146758861Y-78951125D01*
X146666980Y-78728755D01*
X146496995Y-78558473D01*
X146274786Y-78466204D01*
X146034182Y-78465994D01*
X145811812Y-78557875D01*
X145641530Y-78727860D01*
X145549261Y-78950069D01*
X145549051Y-79190673D01*
X145640932Y-79413043D01*
X145778956Y-79551308D01*
X145778956Y-94307466D01*
X144776426Y-95309996D01*
X144582246Y-95309827D01*
X144359876Y-95401708D01*
X144189594Y-95571693D01*
X144097325Y-95793902D01*
X144097115Y-96034506D01*
X142420824Y-96034506D01*
X143575594Y-94879736D01*
X143769774Y-94879905D01*
X143992144Y-94788024D01*
X144162426Y-94618039D01*
X144254695Y-94395830D01*
X144254905Y-94155226D01*
X144163024Y-93932856D01*
X143993039Y-93762574D01*
X143770830Y-93670305D01*
X143530226Y-93670095D01*
X143495199Y-93684568D01*
X143495199Y-82455838D01*
X144823211Y-81127826D01*
X144904501Y-81006167D01*
X144933046Y-80862661D01*
X144933046Y-80336898D01*
X145070472Y-80199712D01*
X145162741Y-79977503D01*
X145162951Y-79736899D01*
X145071070Y-79514529D01*
X144901085Y-79344247D01*
X144678876Y-79251978D01*
X144438272Y-79251768D01*
X144215902Y-79343649D01*
X144045620Y-79513634D01*
X143953351Y-79735843D01*
X143953167Y-79946797D01*
X143761021Y-79867011D01*
X143520417Y-79866801D01*
X143298047Y-79958682D01*
X143127765Y-80128667D01*
X143050000Y-80315946D01*
X143050000Y-78881500D01*
X143012500Y-78844000D01*
X141104000Y-78844000D01*
X141104000Y-80752500D01*
X141141500Y-80790000D01*
X142791567Y-80790000D01*
X142334885Y-81246682D01*
X139338761Y-81246682D01*
X139201575Y-81109256D01*
X139141496Y-81084309D01*
X139221454Y-80964644D01*
X139249999Y-80821137D01*
X139249999Y-80790000D01*
X140858500Y-80790000D01*
X140896000Y-80752500D01*
X140896000Y-78844000D01*
X138987500Y-78844000D01*
X138950000Y-78881500D01*
X138950000Y-79192577D01*
X138766018Y-79116181D01*
X138525414Y-79115971D01*
X138303044Y-79207852D01*
X138132762Y-79377837D01*
X138040493Y-79600046D01*
X138040283Y-79840650D01*
X138083071Y-79944205D01*
X138003035Y-79977275D01*
X137832753Y-80147260D01*
X137791864Y-80245731D01*
X137722746Y-80217031D01*
X137482142Y-80216821D01*
X137259772Y-80308702D01*
X137089490Y-80478687D01*
X136997347Y-80700593D01*
X136997347Y-78799520D01*
X136999681Y-78795625D01*
X137024970Y-78679255D01*
X137028186Y-78452557D01*
X137193423Y-78287320D01*
X137387603Y-78287489D01*
X137609973Y-78195608D01*
X137780255Y-78025623D01*
X137872524Y-77803414D01*
X137872734Y-77562810D01*
X137780853Y-77340440D01*
X137610868Y-77170158D01*
X137388659Y-77077889D01*
X137148055Y-77077679D01*
X137047096Y-77119394D01*
X137051482Y-76810163D01*
X138950000Y-76810163D01*
X138950000Y-78598500D01*
X138987500Y-78636000D01*
X140896000Y-78636000D01*
X140896000Y-76727500D01*
X141104000Y-76727500D01*
X141104000Y-78636000D01*
X143012500Y-78636000D01*
X143050000Y-78598500D01*
X143050000Y-76810163D01*
X143027164Y-76755032D01*
X142984968Y-76712836D01*
X142929837Y-76690000D01*
X141141500Y-76690000D01*
X141104000Y-76727500D01*
X140896000Y-76727500D01*
X140858500Y-76690000D01*
X139070163Y-76690000D01*
X139015032Y-76712836D01*
X138972836Y-76755032D01*
X138950000Y-76810163D01*
X137051482Y-76810163D01*
X137061709Y-76089125D01*
X137244334Y-76089284D01*
X137466704Y-75997403D01*
X137604969Y-75859379D01*
X142610883Y-75859379D01*
X142732863Y-75981359D01*
X142732694Y-76175539D01*
X142824575Y-76397909D01*
X142994560Y-76568191D01*
X143216769Y-76660460D01*
X143457373Y-76660670D01*
X143679743Y-76568789D01*
X143850025Y-76398804D01*
X143855271Y-76386169D01*
X150260909Y-76386169D01*
X150310240Y-76456936D01*
X150522486Y-76510101D01*
X150738923Y-76477995D01*
X150789760Y-76456936D01*
X150839091Y-76386169D01*
X150550000Y-76097078D01*
X150260909Y-76386169D01*
X143855271Y-76386169D01*
X143942294Y-76176595D01*
X143942504Y-75935991D01*
X143936924Y-75922486D01*
X149989899Y-75922486D01*
X150022005Y-76138923D01*
X150043064Y-76189760D01*
X150113831Y-76239091D01*
X150402922Y-75950000D01*
X150113831Y-75660909D01*
X150043064Y-75710240D01*
X149989899Y-75922486D01*
X143936924Y-75922486D01*
X143850623Y-75713621D01*
X143680638Y-75543339D01*
X143609575Y-75513831D01*
X150260909Y-75513831D01*
X150550000Y-75802922D01*
X150839091Y-75513831D01*
X150789760Y-75443064D01*
X150577514Y-75389899D01*
X150361077Y-75422005D01*
X150310240Y-75443064D01*
X150260909Y-75513831D01*
X143609575Y-75513831D01*
X143458429Y-75451070D01*
X143263063Y-75450899D01*
X143087164Y-75275000D01*
X151000000Y-75275000D01*
X151000000Y-75670550D01*
X151000000Y-75670550D01*
G37*
X151000000Y-75670550D02*
X150986169Y-75660909D01*
X150697078Y-75950000D01*
X150986169Y-76239091D01*
X151000000Y-76229450D01*
X151000000Y-79720550D01*
X150986169Y-79710909D01*
X150697078Y-80000000D01*
X150986169Y-80289091D01*
X151000000Y-80279450D01*
X151000000Y-85006340D01*
X148902978Y-85011518D01*
X148849177Y-85021641D01*
X148799025Y-85053737D01*
X148765311Y-85102816D01*
X148753348Y-85161145D01*
X148743348Y-89181145D01*
X148753741Y-89236381D01*
X148786085Y-89286373D01*
X148835330Y-89319843D01*
X148893717Y-89331518D01*
X151000000Y-89326330D01*
X151000000Y-108495550D01*
X150986169Y-108485909D01*
X150697078Y-108775000D01*
X150986169Y-109064091D01*
X151000000Y-109054450D01*
X151000000Y-112545550D01*
X150986169Y-112535909D01*
X150697078Y-112825000D01*
X150986169Y-113114091D01*
X151000000Y-113104450D01*
X151000000Y-119575000D01*
X131950000Y-119575000D01*
X131950000Y-117706645D01*
X132036976Y-117917144D01*
X132206961Y-118087426D01*
X132429170Y-118179695D01*
X132669774Y-118179905D01*
X132892144Y-118088024D01*
X133062426Y-117918039D01*
X133154695Y-117695830D01*
X133154905Y-117455226D01*
X133063024Y-117232856D01*
X132925000Y-117094591D01*
X132925000Y-113261169D01*
X150260909Y-113261169D01*
X150310240Y-113331936D01*
X150522486Y-113385101D01*
X150738923Y-113352995D01*
X150789760Y-113331936D01*
X150839091Y-113261169D01*
X150550000Y-112972078D01*
X150260909Y-113261169D01*
X132925000Y-113261169D01*
X132925000Y-112797486D01*
X149989899Y-112797486D01*
X150022005Y-113013923D01*
X150043064Y-113064760D01*
X150113831Y-113114091D01*
X150402922Y-112825000D01*
X150113831Y-112535909D01*
X150043064Y-112585240D01*
X149989899Y-112797486D01*
X132925000Y-112797486D01*
X132925000Y-112388831D01*
X150260909Y-112388831D01*
X150550000Y-112677922D01*
X150839091Y-112388831D01*
X150789760Y-112318064D01*
X150577514Y-112264899D01*
X150361077Y-112297005D01*
X150310240Y-112318064D01*
X150260909Y-112388831D01*
X132925000Y-112388831D01*
X132925000Y-109211169D01*
X150260909Y-109211169D01*
X150310240Y-109281936D01*
X150522486Y-109335101D01*
X150738923Y-109302995D01*
X150789760Y-109281936D01*
X150839091Y-109211169D01*
X150550000Y-108922078D01*
X150260909Y-109211169D01*
X132925000Y-109211169D01*
X132925000Y-108747486D01*
X149989899Y-108747486D01*
X150022005Y-108963923D01*
X150043064Y-109014760D01*
X150113831Y-109064091D01*
X150402922Y-108775000D01*
X150113831Y-108485909D01*
X150043064Y-108535240D01*
X149989899Y-108747486D01*
X132925000Y-108747486D01*
X132925000Y-108338831D01*
X150260909Y-108338831D01*
X150550000Y-108627922D01*
X150839091Y-108338831D01*
X150789760Y-108268064D01*
X150577514Y-108214899D01*
X150361077Y-108247005D01*
X150310240Y-108268064D01*
X150260909Y-108338831D01*
X132925000Y-108338831D01*
X132925000Y-107354884D01*
X134387871Y-105892013D01*
X134582051Y-105892182D01*
X134804421Y-105800301D01*
X134974703Y-105630316D01*
X135066972Y-105408107D01*
X135067182Y-105167503D01*
X134975301Y-104945133D01*
X134805316Y-104774851D01*
X134583107Y-104682582D01*
X134342503Y-104682372D01*
X134120133Y-104774253D01*
X133949851Y-104944238D01*
X133857582Y-105166447D01*
X133857411Y-105361813D01*
X133417396Y-105801828D01*
X133417396Y-102714041D01*
X133554822Y-102576855D01*
X133614301Y-102433614D01*
X136151010Y-104970323D01*
X136151012Y-104970326D01*
X136237046Y-105027812D01*
X136329445Y-105089551D01*
X136539921Y-105131418D01*
X136539926Y-105131417D01*
X136718036Y-105131417D01*
X136702593Y-105168607D01*
X136702383Y-105409211D01*
X136794264Y-105631581D01*
X136964249Y-105801863D01*
X137186458Y-105894132D01*
X137275665Y-105894210D01*
X137329452Y-105947997D01*
X137475443Y-106045546D01*
X137647650Y-106079799D01*
X138226266Y-106079799D01*
X138195305Y-106154361D01*
X138195095Y-106394965D01*
X138286976Y-106617335D01*
X138425000Y-106755600D01*
X138425000Y-107221812D01*
X138293102Y-107353480D01*
X138200833Y-107575689D01*
X138200623Y-107816293D01*
X138292504Y-108038663D01*
X138462489Y-108208945D01*
X138684698Y-108301214D01*
X138925302Y-108301424D01*
X139147672Y-108209543D01*
X139317954Y-108039558D01*
X139410223Y-107817349D01*
X139410433Y-107576745D01*
X139318552Y-107354375D01*
X139175000Y-107210572D01*
X139175000Y-106755416D01*
X139312426Y-106618230D01*
X139404695Y-106396021D01*
X139404905Y-106155417D01*
X139373660Y-106079799D01*
X140375000Y-106079799D01*
X140375000Y-107116665D01*
X140409254Y-107288873D01*
X140444277Y-107341288D01*
X140444173Y-107460517D01*
X140536054Y-107682887D01*
X140706039Y-107853169D01*
X140928248Y-107945438D01*
X141168852Y-107945648D01*
X141391222Y-107853767D01*
X141561504Y-107683782D01*
X141653773Y-107461573D01*
X141653870Y-107350320D01*
X146746758Y-107350320D01*
X146857848Y-107473144D01*
X147252389Y-107610346D01*
X147669402Y-107586121D01*
X147942152Y-107473144D01*
X148053242Y-107350320D01*
X149146758Y-107350320D01*
X149257848Y-107473144D01*
X149652389Y-107610346D01*
X150069402Y-107586121D01*
X150342152Y-107473144D01*
X150453242Y-107350320D01*
X149800000Y-106697078D01*
X149146758Y-107350320D01*
X148053242Y-107350320D01*
X147400000Y-106697078D01*
X146746758Y-107350320D01*
X141653870Y-107350320D01*
X141653983Y-107220969D01*
X141562102Y-106998599D01*
X141392117Y-106828317D01*
X141275000Y-106779686D01*
X141275000Y-106402389D01*
X146339654Y-106402389D01*
X146363879Y-106819402D01*
X146476856Y-107092152D01*
X146599680Y-107203242D01*
X147252922Y-106550000D01*
X147547078Y-106550000D01*
X148200320Y-107203242D01*
X148323144Y-107092152D01*
X148460346Y-106697611D01*
X148443197Y-106402389D01*
X148739654Y-106402389D01*
X148763879Y-106819402D01*
X148876856Y-107092152D01*
X148999680Y-107203242D01*
X149652922Y-106550000D01*
X149947078Y-106550000D01*
X150600320Y-107203242D01*
X150723144Y-107092152D01*
X150860346Y-106697611D01*
X150836121Y-106280598D01*
X150723144Y-106007848D01*
X150600320Y-105896758D01*
X149947078Y-106550000D01*
X149652922Y-106550000D01*
X148999680Y-105896758D01*
X148876856Y-106007848D01*
X148739654Y-106402389D01*
X148443197Y-106402389D01*
X148436121Y-106280598D01*
X148323144Y-106007848D01*
X148200320Y-105896758D01*
X147547078Y-106550000D01*
X147252922Y-106550000D01*
X146599680Y-105896758D01*
X146476856Y-106007848D01*
X146339654Y-106402389D01*
X141275000Y-106402389D01*
X141275000Y-105749680D01*
X146746758Y-105749680D01*
X147400000Y-106402922D01*
X148053242Y-105749680D01*
X149146758Y-105749680D01*
X149800000Y-106402922D01*
X150453242Y-105749680D01*
X150342152Y-105626856D01*
X149947611Y-105489654D01*
X149530598Y-105513879D01*
X149257848Y-105626856D01*
X149146758Y-105749680D01*
X148053242Y-105749680D01*
X147942152Y-105626856D01*
X147547611Y-105489654D01*
X147130598Y-105513879D01*
X146857848Y-105626856D01*
X146746758Y-105749680D01*
X141275000Y-105749680D01*
X141275000Y-105730356D01*
X141337426Y-105668039D01*
X141429695Y-105445830D01*
X141429773Y-105356623D01*
X142008793Y-104777603D01*
X144785198Y-104777603D01*
X144897796Y-104800000D01*
X146920334Y-104800000D01*
X146921397Y-104802572D01*
X147146245Y-105027812D01*
X147440172Y-105149861D01*
X147758432Y-105150139D01*
X148052572Y-105028603D01*
X148221982Y-104859487D01*
X149237591Y-104859487D01*
X149299419Y-104940651D01*
X149548331Y-105010717D01*
X149805110Y-104980195D01*
X149900581Y-104940651D01*
X149962409Y-104859487D01*
X149600000Y-104497078D01*
X149237591Y-104859487D01*
X148221982Y-104859487D01*
X148277812Y-104803755D01*
X148399861Y-104509828D01*
X148400045Y-104298331D01*
X148939283Y-104298331D01*
X148969805Y-104555110D01*
X149009349Y-104650581D01*
X149090513Y-104712409D01*
X149452922Y-104350000D01*
X149747078Y-104350000D01*
X150109487Y-104712409D01*
X150190651Y-104650581D01*
X150260717Y-104401669D01*
X150230195Y-104144890D01*
X150190651Y-104049419D01*
X150109487Y-103987591D01*
X149747078Y-104350000D01*
X149452922Y-104350000D01*
X149090513Y-103987591D01*
X149009349Y-104049419D01*
X148939283Y-104298331D01*
X148400045Y-104298331D01*
X148400139Y-104191568D01*
X148278603Y-103897428D01*
X148221788Y-103840513D01*
X149237591Y-103840513D01*
X149600000Y-104202922D01*
X149962409Y-103840513D01*
X149900581Y-103759349D01*
X149651669Y-103689283D01*
X149394890Y-103719805D01*
X149299419Y-103759349D01*
X149237591Y-103840513D01*
X148221788Y-103840513D01*
X148053755Y-103672188D01*
X148049052Y-103670235D01*
X148016166Y-103504902D01*
X148019774Y-103504905D01*
X148242144Y-103413024D01*
X148412426Y-103243039D01*
X148504695Y-103020830D01*
X148504905Y-102780226D01*
X148413024Y-102557856D01*
X148389643Y-102534435D01*
X148399861Y-102509828D01*
X148400139Y-102191568D01*
X148278603Y-101897428D01*
X148053755Y-101672188D01*
X147759828Y-101550139D01*
X147441568Y-101549861D01*
X147337231Y-101592972D01*
X147455409Y-101475000D01*
X148194670Y-101475000D01*
X148832326Y-102112656D01*
X148800139Y-102190172D01*
X148799861Y-102508432D01*
X148921397Y-102802572D01*
X149146245Y-103027812D01*
X149440172Y-103149861D01*
X149758432Y-103150139D01*
X150052572Y-103028603D01*
X150277812Y-102803755D01*
X150399861Y-102509828D01*
X150400139Y-102191568D01*
X150278603Y-101897428D01*
X150053755Y-101672188D01*
X149759828Y-101550139D01*
X149441568Y-101549861D01*
X149362756Y-101582426D01*
X148615165Y-100834835D01*
X148493507Y-100753545D01*
X148350000Y-100725000D01*
X148310514Y-100725000D01*
X148399861Y-100509828D01*
X148400139Y-100191568D01*
X148278603Y-99897428D01*
X148132972Y-99751543D01*
X148471213Y-99751543D01*
X148832326Y-100112656D01*
X148800139Y-100190172D01*
X148799861Y-100508432D01*
X148921397Y-100802572D01*
X149146245Y-101027812D01*
X149440172Y-101149861D01*
X149758432Y-101150139D01*
X150052572Y-101028603D01*
X150277812Y-100803755D01*
X150399861Y-100509828D01*
X150400139Y-100191568D01*
X150278603Y-99897428D01*
X150053755Y-99672188D01*
X149759828Y-99550139D01*
X149441568Y-99549861D01*
X149362756Y-99582426D01*
X149128374Y-99348044D01*
X149140164Y-99340166D01*
X149362656Y-99117674D01*
X149440172Y-99149861D01*
X149758432Y-99150139D01*
X150052572Y-99028603D01*
X150277812Y-98803755D01*
X150399861Y-98509828D01*
X150400139Y-98191568D01*
X150278603Y-97897428D01*
X150053755Y-97672188D01*
X149759828Y-97550139D01*
X149441568Y-97549861D01*
X149147428Y-97671397D01*
X148922188Y-97896245D01*
X148800139Y-98190172D01*
X148799861Y-98508432D01*
X148832426Y-98587244D01*
X148719669Y-98700001D01*
X148320894Y-98700001D01*
X148399861Y-98509828D01*
X148400139Y-98191568D01*
X148367574Y-98112756D01*
X148590166Y-97890164D01*
X148671456Y-97768506D01*
X148700001Y-97624999D01*
X148700001Y-96508432D01*
X148799861Y-96508432D01*
X148921397Y-96802572D01*
X149146245Y-97027812D01*
X149440172Y-97149861D01*
X149758432Y-97150139D01*
X150052572Y-97028603D01*
X150277812Y-96803755D01*
X150399861Y-96509828D01*
X150400139Y-96191568D01*
X150278603Y-95897428D01*
X150053755Y-95672188D01*
X149759828Y-95550139D01*
X149441568Y-95549861D01*
X149147428Y-95671397D01*
X148922188Y-95896245D01*
X148800139Y-96190172D01*
X148799861Y-96508432D01*
X148700001Y-96508432D01*
X148700001Y-95300001D01*
X148698971Y-95294822D01*
X148729695Y-95220830D01*
X148729905Y-94980226D01*
X148717549Y-94950320D01*
X149146758Y-94950320D01*
X149257848Y-95073144D01*
X149652389Y-95210346D01*
X150069402Y-95186121D01*
X150342152Y-95073144D01*
X150453242Y-94950320D01*
X149800000Y-94297078D01*
X149146758Y-94950320D01*
X148717549Y-94950320D01*
X148638024Y-94757856D01*
X148468039Y-94587574D01*
X148245830Y-94495305D01*
X148005226Y-94495095D01*
X147782856Y-94586976D01*
X147612574Y-94756961D01*
X147520305Y-94979170D01*
X147520095Y-95219774D01*
X147611976Y-95442144D01*
X147719748Y-95550104D01*
X147441568Y-95549861D01*
X147147428Y-95671397D01*
X146922188Y-95896245D01*
X146800139Y-96190172D01*
X146799861Y-96508432D01*
X146921397Y-96802572D01*
X147146245Y-97027812D01*
X147440172Y-97149861D01*
X147758432Y-97150139D01*
X147950001Y-97070984D01*
X147950001Y-97469669D01*
X147837344Y-97582326D01*
X147759828Y-97550139D01*
X147441568Y-97549861D01*
X147147428Y-97671397D01*
X146922188Y-97896245D01*
X146800139Y-98190172D01*
X146799861Y-98508432D01*
X146825378Y-98570188D01*
X138328988Y-98570188D01*
X138089958Y-98331158D01*
X138090127Y-98136978D01*
X137998246Y-97914608D01*
X137828261Y-97744326D01*
X137606052Y-97652057D01*
X137365448Y-97651847D01*
X137143078Y-97743728D01*
X136972796Y-97913713D01*
X136930648Y-98015216D01*
X136923545Y-97998024D01*
X136753560Y-97827742D01*
X136531351Y-97735473D01*
X136290747Y-97735263D01*
X136068377Y-97827144D01*
X135898095Y-97997129D01*
X135805826Y-98219338D01*
X135805616Y-98459942D01*
X135897497Y-98682312D01*
X136035521Y-98820577D01*
X136035521Y-98969591D01*
X136064066Y-99113098D01*
X136145356Y-99234756D01*
X136323046Y-99412446D01*
X136227569Y-99451896D01*
X136057287Y-99621881D01*
X135965018Y-99844090D01*
X135964808Y-100084694D01*
X136056689Y-100307064D01*
X136226674Y-100477346D01*
X136448883Y-100569615D01*
X136644249Y-100569786D01*
X137134829Y-101060366D01*
X137256488Y-101141656D01*
X137399994Y-101170201D01*
X137401259Y-101170201D01*
X137307218Y-101264078D01*
X137244510Y-101415097D01*
X137062166Y-101414938D01*
X136839796Y-101506819D01*
X136669514Y-101676804D01*
X136577245Y-101899013D01*
X136577035Y-102139617D01*
X136668916Y-102361987D01*
X136838901Y-102532269D01*
X137061110Y-102624538D01*
X137256476Y-102624709D01*
X137508233Y-102876466D01*
X137629891Y-102957756D01*
X137773398Y-102986301D01*
X138221838Y-102986301D01*
X138359024Y-103123727D01*
X138581233Y-103215996D01*
X138821837Y-103216206D01*
X139044207Y-103124325D01*
X139214489Y-102954340D01*
X139306758Y-102732131D01*
X139306968Y-102491527D01*
X139215087Y-102269157D01*
X139045102Y-102098875D01*
X138822893Y-102006606D01*
X138582289Y-102006396D01*
X138359919Y-102098277D01*
X138221654Y-102236301D01*
X137928728Y-102236301D01*
X137904418Y-102211991D01*
X137939418Y-102212022D01*
X138161788Y-102120141D01*
X138300053Y-101982117D01*
X143840808Y-101982117D01*
X144534835Y-102676144D01*
X144656494Y-102757434D01*
X144800000Y-102785979D01*
X145070649Y-102785979D01*
X145404874Y-103120204D01*
X145280226Y-103120095D01*
X145057856Y-103211976D01*
X144919591Y-103350000D01*
X139010104Y-103350000D01*
X138866597Y-103378545D01*
X138744939Y-103459835D01*
X138622777Y-103581997D01*
X137162327Y-103581997D01*
X135504736Y-101924406D01*
X135504905Y-101730226D01*
X135413024Y-101507856D01*
X135243039Y-101337574D01*
X135020830Y-101245305D01*
X134780226Y-101245095D01*
X134557856Y-101336976D01*
X134387574Y-101506961D01*
X134345238Y-101608917D01*
X133482624Y-100746302D01*
X133536705Y-100692316D01*
X133628974Y-100470107D01*
X133629184Y-100229503D01*
X133537303Y-100007133D01*
X133367318Y-99836851D01*
X133145109Y-99744582D01*
X132949743Y-99744411D01*
X132574508Y-99369176D01*
X132574508Y-96304236D01*
X132711934Y-96167050D01*
X132804203Y-95944841D01*
X132804413Y-95704237D01*
X132712532Y-95481867D01*
X132542547Y-95311585D01*
X132320338Y-95219316D01*
X132079734Y-95219106D01*
X131975000Y-95262381D01*
X131975000Y-94862743D01*
X132025453Y-94896455D01*
X132168959Y-94925000D01*
X133332973Y-94925000D01*
X133448356Y-95040585D01*
X133670565Y-95132854D01*
X133911169Y-95133064D01*
X134133539Y-95041183D01*
X134303821Y-94871198D01*
X134396090Y-94648989D01*
X134396300Y-94408385D01*
X134304419Y-94186015D01*
X134134434Y-94015733D01*
X133912225Y-93923464D01*
X133671621Y-93923254D01*
X133449251Y-94015135D01*
X133289107Y-94175000D01*
X133192341Y-94175000D01*
X133234917Y-94132498D01*
X133327186Y-93910289D01*
X133327396Y-93669685D01*
X133235515Y-93447315D01*
X133065530Y-93277033D01*
X132850000Y-93187537D01*
X132850000Y-90955225D01*
X132987426Y-90818039D01*
X133079695Y-90595830D01*
X133079905Y-90355226D01*
X132988024Y-90132856D01*
X132818039Y-89962574D01*
X132595830Y-89870305D01*
X132460802Y-89870187D01*
X132934853Y-89396136D01*
X133141522Y-89396316D01*
X133363892Y-89304435D01*
X133414352Y-89254063D01*
X133414352Y-90123120D01*
X133419138Y-90147183D01*
X133315967Y-90250174D01*
X133223698Y-90472383D01*
X133223488Y-90712987D01*
X133315369Y-90935357D01*
X133485354Y-91105639D01*
X133707563Y-91197908D01*
X133948167Y-91198118D01*
X134170537Y-91106237D01*
X134340819Y-90936252D01*
X134409726Y-90770306D01*
X134554385Y-90914965D01*
X134554216Y-91109145D01*
X134646097Y-91331515D01*
X134816082Y-91501797D01*
X135038291Y-91594066D01*
X135278895Y-91594276D01*
X135501265Y-91502395D01*
X135671547Y-91332410D01*
X135763816Y-91110201D01*
X135764026Y-90869597D01*
X135672145Y-90647227D01*
X135502160Y-90476945D01*
X135279951Y-90384676D01*
X135084585Y-90384505D01*
X134671806Y-89971726D01*
X134738941Y-89971785D01*
X134961311Y-89879904D01*
X135131593Y-89709919D01*
X135223862Y-89487710D01*
X135224072Y-89247106D01*
X135132191Y-89024736D01*
X134994167Y-88886471D01*
X134994167Y-87843976D01*
X134965622Y-87700470D01*
X134965622Y-87700469D01*
X134884332Y-87578811D01*
X133119545Y-85814024D01*
X134018576Y-83019208D01*
X134036763Y-83037426D01*
X134258972Y-83129695D01*
X134499576Y-83129905D01*
X134721946Y-83038024D01*
X134892228Y-82868039D01*
X134984497Y-82645830D01*
X134984668Y-82450464D01*
X135685605Y-81749527D01*
X135766894Y-81627869D01*
X135766895Y-81627868D01*
X135795440Y-81484362D01*
X135795440Y-80343654D01*
X136247347Y-79768499D01*
X136247347Y-82561012D01*
X136135650Y-82607164D01*
X135965368Y-82777149D01*
X135873099Y-82999358D01*
X135872889Y-83239962D01*
X135964770Y-83462332D01*
X136027794Y-83525466D01*
X136027794Y-93329743D01*
X135641110Y-93716427D01*
X135552904Y-93716350D01*
X135330534Y-93808231D01*
X135160252Y-93978216D01*
X135067983Y-94200425D01*
X135067773Y-94441029D01*
X135159654Y-94663399D01*
X135329639Y-94833681D01*
X135551848Y-94925950D01*
X135792452Y-94926160D01*
X136014822Y-94834279D01*
X136185104Y-94664294D01*
X136277373Y-94442085D01*
X136277451Y-94352878D01*
X136795992Y-93834337D01*
X136813036Y-93808829D01*
X136893540Y-93688347D01*
X136927794Y-93516139D01*
X136927794Y-83525544D01*
X136990220Y-83463227D01*
X137082489Y-83241018D01*
X137082699Y-83000414D01*
X136997347Y-82793845D01*
X136997347Y-80942313D01*
X137088892Y-81163870D01*
X137226916Y-81302135D01*
X137226916Y-92169842D01*
X137255461Y-92313349D01*
X137336751Y-92435007D01*
X138463480Y-93561736D01*
X138463311Y-93755916D01*
X138489873Y-93820201D01*
X137479799Y-93820201D01*
X137336292Y-93848746D01*
X137266650Y-93895280D01*
X137055226Y-93895095D01*
X136832856Y-93986976D01*
X136662574Y-94156961D01*
X136570305Y-94379170D01*
X136570095Y-94619774D01*
X136661976Y-94842144D01*
X136831961Y-95012426D01*
X137054170Y-95104695D01*
X137294774Y-95104905D01*
X137343062Y-95084953D01*
X137386976Y-95191233D01*
X137556961Y-95361515D01*
X137779170Y-95453784D01*
X138019774Y-95453994D01*
X138242144Y-95362113D01*
X138392691Y-95211828D01*
X138428020Y-95204801D01*
X142189869Y-95204801D01*
X141703742Y-95690928D01*
X138459072Y-95690928D01*
X138315565Y-95719473D01*
X138193907Y-95800763D01*
X137899406Y-96095264D01*
X137705226Y-96095095D01*
X137482856Y-96186976D01*
X137312574Y-96356961D01*
X137220305Y-96579170D01*
X137220095Y-96819774D01*
X137311976Y-97042144D01*
X137481961Y-97212426D01*
X137704170Y-97304695D01*
X137944774Y-97304905D01*
X138167144Y-97213024D01*
X138337426Y-97043039D01*
X138429695Y-96820830D01*
X138429866Y-96625464D01*
X138614402Y-96440928D01*
X140063178Y-96440928D01*
X140045305Y-96483972D01*
X140045095Y-96724576D01*
X140136976Y-96946946D01*
X140306961Y-97117228D01*
X140529170Y-97209497D01*
X140769774Y-97209707D01*
X140992144Y-97117826D01*
X141130409Y-96979802D01*
X141238442Y-96979802D01*
X141366571Y-97108155D01*
X141588780Y-97200424D01*
X141829384Y-97200634D01*
X142051754Y-97108753D01*
X142222036Y-96938768D01*
X142314305Y-96716559D01*
X142314515Y-96475955D01*
X142222634Y-96253585D01*
X142212199Y-96243131D01*
X142420824Y-96034506D01*
X144097115Y-96034506D01*
X144188996Y-96256876D01*
X144358981Y-96427158D01*
X144581190Y-96519427D01*
X144821794Y-96519637D01*
X145044164Y-96427756D01*
X145214446Y-96257771D01*
X145306715Y-96035562D01*
X145306886Y-95840196D01*
X146419121Y-94727961D01*
X146500411Y-94606302D01*
X146528956Y-94462796D01*
X146528956Y-94002389D01*
X148739654Y-94002389D01*
X148763879Y-94419402D01*
X148876856Y-94692152D01*
X148999680Y-94803242D01*
X149652922Y-94150000D01*
X149947078Y-94150000D01*
X150600320Y-94803242D01*
X150723144Y-94692152D01*
X150860346Y-94297611D01*
X150836121Y-93880598D01*
X150723144Y-93607848D01*
X150600320Y-93496758D01*
X149947078Y-94150000D01*
X149652922Y-94150000D01*
X148999680Y-93496758D01*
X148876856Y-93607848D01*
X148739654Y-94002389D01*
X146528956Y-94002389D01*
X146528956Y-93349680D01*
X149146758Y-93349680D01*
X149800000Y-94002922D01*
X150453242Y-93349680D01*
X150342152Y-93226856D01*
X149947611Y-93089654D01*
X149530598Y-93113879D01*
X149257848Y-93226856D01*
X149146758Y-93349680D01*
X146528956Y-93349680D01*
X146528956Y-80436169D01*
X150260909Y-80436169D01*
X150310240Y-80506936D01*
X150522486Y-80560101D01*
X150738923Y-80527995D01*
X150789760Y-80506936D01*
X150839091Y-80436169D01*
X150550000Y-80147078D01*
X150260909Y-80436169D01*
X146528956Y-80436169D01*
X146528956Y-79972486D01*
X149989899Y-79972486D01*
X150022005Y-80188923D01*
X150043064Y-80239760D01*
X150113831Y-80289091D01*
X150402922Y-80000000D01*
X150113831Y-79710909D01*
X150043064Y-79760240D01*
X149989899Y-79972486D01*
X146528956Y-79972486D01*
X146528956Y-79563831D01*
X150260909Y-79563831D01*
X150550000Y-79852922D01*
X150839091Y-79563831D01*
X150789760Y-79493064D01*
X150577514Y-79439899D01*
X150361077Y-79472005D01*
X150310240Y-79493064D01*
X150260909Y-79563831D01*
X146528956Y-79563831D01*
X146528956Y-79551124D01*
X146666382Y-79413938D01*
X146758651Y-79191729D01*
X146758861Y-78951125D01*
X146666980Y-78728755D01*
X146496995Y-78558473D01*
X146274786Y-78466204D01*
X146034182Y-78465994D01*
X145811812Y-78557875D01*
X145641530Y-78727860D01*
X145549261Y-78950069D01*
X145549051Y-79190673D01*
X145640932Y-79413043D01*
X145778956Y-79551308D01*
X145778956Y-94307466D01*
X144776426Y-95309996D01*
X144582246Y-95309827D01*
X144359876Y-95401708D01*
X144189594Y-95571693D01*
X144097325Y-95793902D01*
X144097115Y-96034506D01*
X142420824Y-96034506D01*
X143575594Y-94879736D01*
X143769774Y-94879905D01*
X143992144Y-94788024D01*
X144162426Y-94618039D01*
X144254695Y-94395830D01*
X144254905Y-94155226D01*
X144163024Y-93932856D01*
X143993039Y-93762574D01*
X143770830Y-93670305D01*
X143530226Y-93670095D01*
X143495199Y-93684568D01*
X143495199Y-82455838D01*
X144823211Y-81127826D01*
X144904501Y-81006167D01*
X144933046Y-80862661D01*
X144933046Y-80336898D01*
X145070472Y-80199712D01*
X145162741Y-79977503D01*
X145162951Y-79736899D01*
X145071070Y-79514529D01*
X144901085Y-79344247D01*
X144678876Y-79251978D01*
X144438272Y-79251768D01*
X144215902Y-79343649D01*
X144045620Y-79513634D01*
X143953351Y-79735843D01*
X143953167Y-79946797D01*
X143761021Y-79867011D01*
X143520417Y-79866801D01*
X143298047Y-79958682D01*
X143127765Y-80128667D01*
X143050000Y-80315946D01*
X143050000Y-78881500D01*
X143012500Y-78844000D01*
X141104000Y-78844000D01*
X141104000Y-80752500D01*
X141141500Y-80790000D01*
X142791567Y-80790000D01*
X142334885Y-81246682D01*
X139338761Y-81246682D01*
X139201575Y-81109256D01*
X139141496Y-81084309D01*
X139221454Y-80964644D01*
X139249999Y-80821137D01*
X139249999Y-80790000D01*
X140858500Y-80790000D01*
X140896000Y-80752500D01*
X140896000Y-78844000D01*
X138987500Y-78844000D01*
X138950000Y-78881500D01*
X138950000Y-79192577D01*
X138766018Y-79116181D01*
X138525414Y-79115971D01*
X138303044Y-79207852D01*
X138132762Y-79377837D01*
X138040493Y-79600046D01*
X138040283Y-79840650D01*
X138083071Y-79944205D01*
X138003035Y-79977275D01*
X137832753Y-80147260D01*
X137791864Y-80245731D01*
X137722746Y-80217031D01*
X137482142Y-80216821D01*
X137259772Y-80308702D01*
X137089490Y-80478687D01*
X136997347Y-80700593D01*
X136997347Y-78799520D01*
X136999681Y-78795625D01*
X137024970Y-78679255D01*
X137028186Y-78452557D01*
X137193423Y-78287320D01*
X137387603Y-78287489D01*
X137609973Y-78195608D01*
X137780255Y-78025623D01*
X137872524Y-77803414D01*
X137872734Y-77562810D01*
X137780853Y-77340440D01*
X137610868Y-77170158D01*
X137388659Y-77077889D01*
X137148055Y-77077679D01*
X137047096Y-77119394D01*
X137051482Y-76810163D01*
X138950000Y-76810163D01*
X138950000Y-78598500D01*
X138987500Y-78636000D01*
X140896000Y-78636000D01*
X140896000Y-76727500D01*
X141104000Y-76727500D01*
X141104000Y-78636000D01*
X143012500Y-78636000D01*
X143050000Y-78598500D01*
X143050000Y-76810163D01*
X143027164Y-76755032D01*
X142984968Y-76712836D01*
X142929837Y-76690000D01*
X141141500Y-76690000D01*
X141104000Y-76727500D01*
X140896000Y-76727500D01*
X140858500Y-76690000D01*
X139070163Y-76690000D01*
X139015032Y-76712836D01*
X138972836Y-76755032D01*
X138950000Y-76810163D01*
X137051482Y-76810163D01*
X137061709Y-76089125D01*
X137244334Y-76089284D01*
X137466704Y-75997403D01*
X137604969Y-75859379D01*
X142610883Y-75859379D01*
X142732863Y-75981359D01*
X142732694Y-76175539D01*
X142824575Y-76397909D01*
X142994560Y-76568191D01*
X143216769Y-76660460D01*
X143457373Y-76660670D01*
X143679743Y-76568789D01*
X143850025Y-76398804D01*
X143855271Y-76386169D01*
X150260909Y-76386169D01*
X150310240Y-76456936D01*
X150522486Y-76510101D01*
X150738923Y-76477995D01*
X150789760Y-76456936D01*
X150839091Y-76386169D01*
X150550000Y-76097078D01*
X150260909Y-76386169D01*
X143855271Y-76386169D01*
X143942294Y-76176595D01*
X143942504Y-75935991D01*
X143936924Y-75922486D01*
X149989899Y-75922486D01*
X150022005Y-76138923D01*
X150043064Y-76189760D01*
X150113831Y-76239091D01*
X150402922Y-75950000D01*
X150113831Y-75660909D01*
X150043064Y-75710240D01*
X149989899Y-75922486D01*
X143936924Y-75922486D01*
X143850623Y-75713621D01*
X143680638Y-75543339D01*
X143609575Y-75513831D01*
X150260909Y-75513831D01*
X150550000Y-75802922D01*
X150839091Y-75513831D01*
X150789760Y-75443064D01*
X150577514Y-75389899D01*
X150361077Y-75422005D01*
X150310240Y-75443064D01*
X150260909Y-75513831D01*
X143609575Y-75513831D01*
X143458429Y-75451070D01*
X143263063Y-75450899D01*
X143087164Y-75275000D01*
X151000000Y-75275000D01*
X151000000Y-75670550D01*
G36*
X132175000Y-117094775D02*
X132037574Y-117231961D01*
X131950000Y-117442863D01*
X131950000Y-110375441D01*
X131952605Y-109411611D01*
X132175000Y-109189216D01*
X132175000Y-117094775D01*
X132175000Y-117094775D01*
G37*
X132175000Y-117094775D02*
X132037574Y-117231961D01*
X131950000Y-117442863D01*
X131950000Y-110375441D01*
X131952605Y-109411611D01*
X132175000Y-109189216D01*
X132175000Y-117094775D01*
G36*
X142855034Y-82035343D02*
X142773744Y-82157001D01*
X142759903Y-82226587D01*
X142745199Y-82300508D01*
X142745199Y-93983577D01*
X142712261Y-94016515D01*
X142688024Y-93957856D01*
X142518039Y-93787574D01*
X142295830Y-93695305D01*
X142055226Y-93695095D01*
X141832856Y-93786976D01*
X141799573Y-93820201D01*
X141030213Y-93820201D01*
X141106376Y-93636779D01*
X141106586Y-93396175D01*
X141014705Y-93173805D01*
X140876681Y-93035540D01*
X140876681Y-84048963D01*
X140848136Y-83905457D01*
X140766846Y-83783798D01*
X139142000Y-82158952D01*
X139200680Y-82134706D01*
X139338945Y-81996682D01*
X142490215Y-81996682D01*
X142633722Y-81968137D01*
X142755380Y-81886847D01*
X143565785Y-81076442D01*
X143759965Y-81076611D01*
X143851649Y-81038728D01*
X142855034Y-82035343D01*
X142855034Y-82035343D01*
G37*
X142855034Y-82035343D02*
X142773744Y-82157001D01*
X142759903Y-82226587D01*
X142745199Y-82300508D01*
X142745199Y-93983577D01*
X142712261Y-94016515D01*
X142688024Y-93957856D01*
X142518039Y-93787574D01*
X142295830Y-93695305D01*
X142055226Y-93695095D01*
X141832856Y-93786976D01*
X141799573Y-93820201D01*
X141030213Y-93820201D01*
X141106376Y-93636779D01*
X141106586Y-93396175D01*
X141014705Y-93173805D01*
X140876681Y-93035540D01*
X140876681Y-84048963D01*
X140848136Y-83905457D01*
X140766846Y-83783798D01*
X139142000Y-82158952D01*
X139200680Y-82134706D01*
X139338945Y-81996682D01*
X142490215Y-81996682D01*
X142633722Y-81968137D01*
X142755380Y-81886847D01*
X143565785Y-81076442D01*
X143759965Y-81076611D01*
X143851649Y-81038728D01*
X142855034Y-82035343D01*
G36*
X139251997Y-83877134D02*
X139251997Y-92514961D01*
X139114571Y-92652147D01*
X139022302Y-92874356D01*
X139022165Y-93031301D01*
X138993680Y-93031276D01*
X137976916Y-92014512D01*
X137976916Y-82602053D01*
X139251997Y-83877134D01*
X139251997Y-83877134D01*
G37*
X139251997Y-83877134D02*
X139251997Y-92514961D01*
X139114571Y-92652147D01*
X139022302Y-92874356D01*
X139022165Y-93031301D01*
X138993680Y-93031276D01*
X137976916Y-92014512D01*
X137976916Y-82602053D01*
X139251997Y-83877134D01*
M02*
